<?xml version="1.0" encoding="UTF-8" standalone="no"?>
<svg
   width="1920"
   height="800"
   viewBox="0 0 1920 800"
   version="1.1"
   id="svg8"
   inkscape:version="1.3 (0e150ed6c4, 2023-07-21)"
   xml:space="preserve"
   sodipodi:docname="bg1.svg"
   inkscape:export-filename="darkbg.svg"
   inkscape:export-xdpi="96"
   inkscape:export-ydpi="96"
   xmlns:inkscape="http://www.inkscape.org/namespaces/inkscape"
   xmlns:sodipodi="http://sodipodi.sourceforge.net/DTD/sodipodi-0.dtd"
   xmlns="http://www.w3.org/2000/svg"
   xmlns:svg="http://www.w3.org/2000/svg"
   xmlns:rdf="http://www.w3.org/1999/02/22-rdf-syntax-ns#"
   xmlns:cc="http://creativecommons.org/ns#"
   xmlns:dc="http://purl.org/dc/elements/1.1/"><defs
     id="defs2" /><sodipodi:namedview
     id="base"
     pagecolor="#1f1f1f"
     bordercolor="#666666"
     borderopacity="1.0"
     inkscape:pageopacity="0"
     inkscape:pageshadow="2"
     inkscape:zoom="0.57875767"
     inkscape:cx="967.58977"
     inkscape:cy="358.52657"
     inkscape:document-units="px"
     inkscape:current-layer="layer2"
     inkscape:document-rotation="0"
     showgrid="false"
     units="px"
     fit-margin-top="0"
     fit-margin-left="0"
     fit-margin-right="0"
     fit-margin-bottom="0"
     inkscape:showpageshadow="false"
     inkscape:pagecheckerboard="false"
     inkscape:deskcolor="#d1d1d1"
     inkscape:export-bgcolor="#ffffff00" /><metadata
     id="metadata5"><rdf:RDF><cc:Work
         rdf:about=""><dc:format>image/svg+xml</dc:format><dc:type
           rdf:resource="http://purl.org/dc/dcmitype/StillImage" /></cc:Work></rdf:RDF></metadata><g
     inkscape:groupmode="layer"
     id="layer2"
     inkscape:label="Content"
     style="display:inline"
     inkscape:export-filename="layer2.svg"
     inkscape:export-xdpi="96"
     inkscape:export-ydpi="96"
     transform="translate(0,184.40979)"><g
       id="light"
       style="display:none"><path
         id="rect4"
         style="fill:#12a594;fill-opacity:1;fill-rule:evenodd;stroke-width:33.2217;stroke-linejoin:bevel"
         d="M 0,-184.40979 H 1920 V 600 c 0,0 -143.1845,58.74652 -414.3421,-51.83517 -164.6862,-67.16122 -412.9142,-45.41275 -533.56303,0 C 771.92034,623.5114 494.09154,625.51437 333.1337,489.41831 246.06473,415.79814 0,477.46284 0,358.10256 Z"
         sodipodi:nodetypes="cccssssc" /></g><g
       id="dark"
       style="display:inline"><path
         id="path5"
         style="display:inline;fill:#0e9888;fill-opacity:1;fill-rule:evenodd;stroke-width:33.2217;stroke-linejoin:bevel"
         d="M 0,-184.40979 H 1920 V 600 c 0,0 -143.1845,58.74652 -414.3421,-51.83517 -164.6862,-67.16122 -412.9142,-45.41275 -533.56303,0 C 771.92034,623.5114 494.09154,625.51437 333.1337,489.41831 246.06473,415.79814 0,477.46284 0,358.10256 Z"
         sodipodi:nodetypes="cccssssc" /></g><path
       sodipodi:type="star"
       style="display:none;opacity:0.311159;fill:#e7f9f5;fill-opacity:0.544018;fill-rule:evenodd;stroke:#e7f9f5;stroke-width:19.9;stroke-linejoin:bevel;stroke-dasharray:none;stroke-opacity:0.532731"
       id="path79"
       inkscape:flatsided="true"
       sodipodi:sides="4"
       sodipodi:cx="361.11832"
       sodipodi:cy="190.06229"
       sodipodi:r1="51.168541"
       sodipodi:r2="36.181622"
       sodipodi:arg1="0.20401798"
       sodipodi:arg2="0.98941614"
       inkscape:rounded="0"
       inkscape:randomized="0.001"
       d="M 411.25828,200.39594 350.79684,240.14577 311.0364,179.72223 371.49783,139.9724 Z"
       transform="translate(-202.15715,-262.16254)"
       inkscape:transform-center-x="-0.029021315"
       inkscape:transform-center-y="-0.030751847" /><path
       sodipodi:type="star"
       style="display:none;opacity:0.311159;fill:#e7f9f5;fill-opacity:0.544018;fill-rule:evenodd;stroke:#e7f9f5;stroke-width:19.9;stroke-linejoin:bevel;stroke-dasharray:none;stroke-opacity:0.532731"
       id="path80"
       inkscape:flatsided="true"
       sodipodi:sides="4"
       sodipodi:cx="540.8136"
       sodipodi:cy="214.25201"
       sodipodi:r1="33.190701"
       sodipodi:r2="23.46937"
       sodipodi:arg1="0.89605538"
       sodipodi:arg2="1.6814535"
       inkscape:rounded="0"
       inkscape:randomized="0.002"
       d="m 561.60416,240.22797 -46.75894,-5.26219 5.27422,-46.66155 46.61902,5.21561 z"
       transform="translate(-124.4044,150.79095)"
       inkscape:transform-center-x="0.010877663"
       inkscape:transform-center-y="0.0070431084" /><path
       sodipodi:type="star"
       style="display:none;opacity:0.311159;fill:#e7f9f5;fill-opacity:0.544018;fill-rule:evenodd;stroke:#e7f9f5;stroke-width:19.9;stroke-linejoin:bevel;stroke-dasharray:none;stroke-opacity:0.532731"
       id="path81"
       inkscape:flatsided="true"
       sodipodi:sides="5"
       sodipodi:cx="964.13409"
       sodipodi:cy="114.03737"
       sodipodi:r1="36.73436"
       sodipodi:r2="25.975115"
       sodipodi:arg1="0.85196633"
       sodipodi:arg2="1.4802849"
       inkscape:rounded="0"
       inkscape:randomized="0.002"
       d="m 988.26338,141.63958 -42.91045,3.94036 -17.08293,-39.64671 32.59831,-28.469785 37.0748,22.044227 z"
       transform="translate(5.1835166,-155.03653)"
       inkscape:transform-center-x="0.065412602"
       inkscape:transform-center-y="-0.055846097" /><path
       sodipodi:type="star"
       style="display:none;opacity:0.311159;fill:#e7f9f5;fill-opacity:0.544018;fill-rule:evenodd;stroke:#e7f9f5;stroke-width:19.9;stroke-linejoin:bevel;stroke-dasharray:none;stroke-opacity:0.532731"
       id="path83"
       inkscape:flatsided="true"
       sodipodi:sides="6"
       sodipodi:cx="1249.2275"
       sodipodi:cy="428.50403"
       sodipodi:r1="59.879028"
       sodipodi:r2="51.856758"
       sodipodi:arg1="0.80580349"
       sodipodi:arg2="1.3294023"
       inkscape:rounded="0"
       inkscape:randomized="0.002"
       d="m 1290.651,471.62982 -58.0253,14.30025 -41.5127,-43.10476 16.5809,-57.44245 58.324,-14.32434 41.3255,43.14258 z"
       transform="translate(-243.62528,-53.094035)"
       inkscape:transform-center-x="-0.0006572772"
       inkscape:transform-center-y="-0.009733855" /><path
       sodipodi:type="star"
       style="display:none;opacity:0.311159;fill:#e7f9f5;fill-opacity:0.544018;fill-rule:evenodd;stroke:#e7f9f5;stroke-width:19.9;stroke-linejoin:bevel;stroke-dasharray:none;stroke-opacity:0.532731"
       id="path84"
       inkscape:flatsided="true"
       sodipodi:sides="3"
       sodipodi:cx="1330.4359"
       sodipodi:cy="145.13847"
       sodipodi:r1="76.689575"
       sodipodi:r2="66.415123"
       sodipodi:arg1="0.25044309"
       sodipodi:arg2="1.2976406"
       inkscape:rounded="0"
       inkscape:randomized="0.002"
       d="m 1404.6921,164.14497 -128.0109,35.80734 33.1222,-128.743453 z"
       transform="translate(369.75752,-4.7145489)"
       inkscape:transform-center-x="-0.025890399"
       inkscape:transform-center-y="-0.080935784" /><g
       fill="currentColor"
       id="g115"
       transform="matrix(4.2706594,0,0,4.2706594,677.9001,421.78499)"
       style="display:inline;fill:#c7ebe5;fill-opacity:1"><path
         d="m 16,22 c -1.886,0 -2.828,0 -3.414,-0.586 -0.503,-0.502 -0.574,-1.267 -0.584,-2.664 L 12,17.25 V 6.75 l 0.002,-1.5 C 12.012,3.853 12.083,3.088 12.586,2.586 13.172,2 14.114,2 16,2 h 2 c 1.886,0 2.828,0 3.414,0.586 C 22,3.172 22,4.114 22,6 v 12 c 0,1.886 0,2.828 -0.586,3.414 C 20.828,22 19.886,22 18,22 Z"
         opacity="0.5"
         id="path113"
         style="fill:#c7ebe5;fill-opacity:1" /><path
         d="m 15,8.25 h -3 v 1.5 h 3 a 0.75,0.75 0 0 0 0,-1.5 z m -1,-3 H 12.002 L 12,6.75 h 2 a 0.75,0.75 0 0 0 0,-1.5 z m 0,6 h -2 v 1.5 h 2 a 0.75,0.75 0 0 0 0,-1.5 z m 1,3 h -3 v 1.5 h 3 a 0.75,0.75 0 0 0 0,-1.5 z m -1,3 h -2 l 0.002,1.5 H 14 a 0.75,0.75 0 0 0 0,-1.5 z M 8,14.98 V 7 A 7.85,7.85 0 0 1 5,7.59 7.85,7.85 0 0 1 2,7 v 7.98 c 0,0.622 0,0.934 0.038,1.24 a 5,5 0 0 0 0.25,1.056 c 0.102,0.29 0.241,0.569 0.52,1.126 l 1.468,2.937 a 0.809,0.809 0 0 0 1.448,0 l 1.468,-2.937 c 0.279,-0.557 0.418,-0.835 0.52,-1.126 a 5,5 0 0 0 0.25,-1.057 C 8,15.914 8,15.602 8,14.98 Z"
         id="path114"
         style="fill:#c7ebe5;fill-opacity:1" /><path
         d="M 5,2 A 3,3 0 0 1 8,5 V 7 A 7.85,7.85 0 0 1 5,7.589 7.85,7.85 0 0 1 2,7 V 5 A 3,3 0 0 1 5,2 Z"
         opacity="0.5"
         id="path115"
         style="fill:#c7ebe5;fill-opacity:1" /></g><g
       fill="currentColor"
       id="g2"
       transform="matrix(4.7181385,1.1892648,-1.1892648,4.7181385,1402.2201,-81.229042)"
       style="display:inline;fill:#c7ebe5;fill-opacity:1"><path
         fill-rule="evenodd"
         d="m 14.447,16.377 5.847,-5.83 C 21.136,9.708 21.557,9.288 21.778,8.755 22,8.22 22,7.627 22,6.44 V 5.873 C 22,4.047 22,3.134 21.431,2.567 20.862,2 19.947,2 18.116,2 h -0.57 c -1.19,0 -1.785,0 -2.32,0.221 -0.536,0.221 -0.957,0.641 -1.8,1.48 L 7.58,9.531 c -0.984,0.98 -1.594,1.589 -1.83,2.176 a 1.48,1.48 0 0 0 -0.112,0.562 c 0,0.802 0.647,1.448 1.942,2.739 l 0.174,0.173 2.038,-2.069 a 0.75026162,0.75026162 0 1 1 1.069,1.053 l -2.045,2.075 0.137,0.137 c 1.295,1.29 1.943,1.936 2.747,1.936 0.178,0 0.348,-0.031 0.519,-0.094 0.603,-0.222 1.219,-0.836 2.228,-1.842 z m 2.747,-6.846 a 1.946,1.946 0 0 1 -2.747,0 1.932,1.932 0 0 1 0,-2.738 1.946,1.946 0 0 1 2.747,0 1.932,1.932 0 0 1 0,2.738 z"
         clip-rule="evenodd"
         id="path1-1"
         style="fill:#c7ebe5;fill-opacity:1" /><path
         d="M 9.034,5.963 6.491,8.5 C 6.024,8.966 5.595,9.393 5.256,9.78 A 6.08,6.08 0 0 0 4.637,10.6 L 4.613,10.575 4.518,10.481 A 4.857,4.857 0 0 0 2.986,9.477 L 2.863,9.427 2.484,9.277 A 0.764,0.764 0 0 1 2.225,8.025 C 3.345,6.907 4.69,5.566 5.34,5.297 A 3.38,3.38 0 0 1 7.128,5.068 C 7.674,5.149 8.191,5.43 9.035,5.963 Z m 4.343,13.35 c 0.205,0.208 0.34,0.355 0.464,0.512 0.162,0.207 0.307,0.427 0.434,0.658 0.142,0.26 0.253,0.537 0.474,1.092 a 0.691,0.691 0 0 0 1.126,0.224 l 0.084,-0.083 c 1.12,-1.117 2.465,-2.458 2.735,-3.105 a 3.35,3.35 0 0 0 0.229,-1.782 c -0.081,-0.545 -0.362,-1.06 -0.897,-1.902 l -2.552,2.544 c -0.478,0.477 -0.916,0.914 -1.313,1.256 -0.237,0.206 -0.497,0.41 -0.784,0.586 z"
         opacity="0.5"
         id="path2-2"
         style="fill:#c7ebe5;fill-opacity:1" /></g><path
       fill="currentColor"
       d="m 1810.8006,542.27368 c 3.3542,-0.47916 6.3766,-2.38352 8.2564,-5.27078 l 19.8668,-30.72777 c 1.548,-2.39581 1.1549,-5.56565 -0.9338,-7.51916 -2.0887,-1.9535 -5.2708,-2.12551 -7.556,-0.40544 l -29.0814,21.82028 c -2.9487,2.21152 -4.6934,5.66394 -4.7179,9.3498 z m -2.408,3.1207 -14.252,-12.82679 c -7.3472,0.27029 -13.2323,6.32739 -13.2323,13.74825 0,0.47916 0.025,0.95832 0.074,1.4252 0.2212,2.15008 -1.2532,4.47218 -3.4155,4.47218 h -0.5898 c -2.1746,0 -3.9315,1.75692 -3.9315,3.93158 0,2.17466 1.7569,3.93158 3.9315,3.93158 h 17.6922 c 7.6051,0 13.7605,-6.15538 13.7605,-13.76054 0,-0.30715 -0.012,-0.61431 -0.025,-0.92146 z"
       id="path6"
       style="display:inline;fill:#c7ebe5;fill-opacity:1;stroke-width:0.122862" /><g
       fill="currentColor"
       id="g10"
       transform="matrix(3.5039851,0,0,3.5039851,66.117304,238.83453)"
       style="display:inline;fill:#c7ebe5;fill-opacity:1"><path
         d="M 7.75,19 A 0.75,0.75 0 0 1 7,19.75 H 5 a 0.75,0.75 0 0 1 0,-1.5 H 7 A 0.75,0.75 0 0 1 7.75,19 Z"
         id="path7"
         style="fill:#c7ebe5;fill-opacity:1" /><path
         d="M 10,18 V 6 C 10,4.6 10,3.9 9.728,3.365 A 2.5,2.5 0 0 0 8.635,2.272 C 8.1,2 7.4,2 6,2 4.6,2 3.9,2 3.365,2.272 A 2.5,2.5 0 0 0 2.272,3.365 C 2,3.9 2,4.6 2,6 v 12 c 0,1.4 0,2.1 0.272,2.635 a 2.5,2.5 0 0 0 1.093,1.092 C 3.9,22 4.6,22 6,22 7.4,22 8.1,22 8.635,21.727 A 2.5,2.5 0 0 0 9.728,20.635 C 10,20.1 10,19.4 10,18 Z"
         opacity="0.4"
         id="path8"
         style="fill:#c7ebe5;fill-opacity:1" /><path
         d="M 10,8.243 V 18 c 0,0.919 0,1.536 -0.077,2.003 l 3.299,-3.299 5.838,-6.09 c 0.973,-1.003 1.46,-1.505 1.636,-2.08 A 2.5,2.5 0 0 0 20.685,7.031 C 20.5,6.458 20,5.958 19,4.959 18.1,4.073 17.648,3.629 17.12,3.445 A 2.5,2.5 0 0 0 15.767,3.36 C 15.22,3.478 14.718,3.862 13.714,4.63 L 13,5.243 Z M 8.003,21.923 H 8 v 0.003 z"
         opacity="0.7"
         id="path9"
         style="fill:#c7ebe5;fill-opacity:1" /><path
         d="M 15.814,14 H 17.9 c 1.4,0 2.1,0 2.635,0.273 a 2.5,2.5 0 0 1 1.093,1.092 C 21.9,15.9 21.9,16.6 21.9,18 c 0,1.4 0,2.1 -0.272,2.635 a 2.5,2.5 0 0 1 -1.093,1.092 C 20,22 19.3,22 17.9,22 H 6 c 0.917,0 1.534,0 2,-0.077 v 0.003 l 0.003,-0.003 c 0.245,-0.04 0.448,-0.102 0.632,-0.195 a 2.5,2.5 0 0 0 1.093,-1.093 c 0.093,-0.184 0.155,-0.387 0.195,-0.632 l 3.299,-3.299 z"
         id="path10"
         style="fill:#c7ebe5;fill-opacity:1" /></g><g
       fill="currentColor"
       id="moon"
       transform="matrix(4.9617949,0,0,4.9617949,553.84126,-40.930258)"
       style="display:inline;fill:#c7ebe5;fill-opacity:1"><path
         d="m 12,22 c 5.523,0 10,-4.477 10,-10 0,-0.463 -0.694,-0.54 -0.933,-0.143 A 6.5,6.5 0 1 1 12.143,2.933 C 12.54,2.693 12.463,2 12,2 6.477,2 2,6.477 2,12 2,17.523 6.477,22 12,22 Z"
         opacity="0.5"
         id="path1-9"
         style="fill:#c7ebe5;fill-opacity:1" /><path
         d="M 11.286,22 C 13.337,22 15,20.42 15,18.47 15,16.926 13.955,15.613 12.5,15.134 12.295,13.371 10.72,12 8.81,12 c -2.052,0 -3.715,1.58 -3.715,3.53 0,0.43 0.082,0.844 0.23,1.226 a 2.949,2.949 0 0 0 -0.54,-0.05 C 3.248,16.706 2,17.89 2,19.353 2,20.815 3.247,22 4.786,22 Z"
         id="path2-3"
         style="fill:#c7ebe5;fill-opacity:1" /></g><g
       fill="currentColor"
       id="sun"
       transform="matrix(5.0804537,0,0,5.0804537,557.41428,-43.040753)"
       style="display:none;fill:#c7ebe5;fill-opacity:1"><path
         d="m 11.5,8 a 3.5,3.5 0 1 1 -7,0 3.5,3.5 0 0 1 7,0 z"
         opacity="0.5"
         id="path1-0"
         style="fill:#c7ebe5;fill-opacity:1" /><path
         fill-rule="evenodd"
         d="M 7.5,1.25 A 0.75,0.75 0 0 1 8.25,2 v 0.5 a 0.75,0.75 0 0 1 -1.5,0 V 2 A 0.75,0.75 0 0 1 7.5,1.25 Z M 3.08,3.08 a 0.75,0.75 0 0 1 1.062,0 L 4.358,3.297 A 0.75,0.75 0 0 1 3.297,4.357 L 3.081,4.141 a 0.75,0.75 0 0 1 0,-1.06 z m 8.839,0 a 0.75,0.75 0 0 1 0,1.061 l -0.216,0.216 a 0.75,0.75 0 1 1 -1.06,-1.06 l 0.215,-0.216 a 0.75,0.75 0 0 1 1.061,0 z M 1.25,7.5 A 0.75,0.75 0 0 1 2,6.75 h 0.5 a 0.75,0.75 0 0 1 0,1.5 H 2 A 0.75,0.75 0 0 1 1.25,7.5 Z m 3.108,3.143 a 0.75,0.75 0 0 1 0,1.06 l -0.216,0.216 a 0.75,0.75 0 0 1 -1.061,-1.06 l 0.216,-0.216 a 0.75,0.75 0 0 1 1.06,0 z"
         clip-rule="evenodd"
         opacity="0.5"
         id="path2-62"
         style="fill:#c7ebe5;fill-opacity:1" /><path
         d="M 16.286,22 C 19.442,22 22,19.472 22,16.353 22,13.881 20.393,11.78 18.155,11.015 17.837,8.194 15.415,6 12.476,6 9.32,6 6.762,8.528 6.762,11.647 c 0,0.69 0.125,1.35 0.354,1.962 a 4.351,4.351 0 0 0 -0.83,-0.08 C 3.919,13.53 2,15.426 2,17.765 2,20.104 3.919,22 6.286,22 Z"
         id="path3-6"
         style="fill:#c7ebe5;fill-opacity:1" /></g></g></svg>
