<?xml version="1.0" encoding="UTF-8" standalone="no"?>
<svg
   width="640"
   height="800"
   viewBox="0 0 640 800"
   version="1.1"
   id="svg8"
   inkscape:version="1.3 (0e150ed6c4, 2023-07-21)"
   xml:space="preserve"
   sodipodi:docname="bg1.svg"
   inkscape:export-filename="lightbg.svg"
   inkscape:export-xdpi="96"
   inkscape:export-ydpi="96"
   xmlns:inkscape="http://www.inkscape.org/namespaces/inkscape"
   xmlns:sodipodi="http://sodipodi.sourceforge.net/DTD/sodipodi-0.dtd"
   xmlns="http://www.w3.org/2000/svg"
   xmlns:svg="http://www.w3.org/2000/svg"
   xmlns:rdf="http://www.w3.org/1999/02/22-rdf-syntax-ns#"
   xmlns:cc="http://creativecommons.org/ns#"
   xmlns:dc="http://purl.org/dc/elements/1.1/"><defs
     id="defs2"><clipPath
       clipPathUnits="userSpaceOnUse"
       id="clipPath1"><rect
         style="opacity:0.311159;fill:#f1fcfa;stroke-width:18.1514;stroke-linejoin:bevel;stroke-opacity:0.532731"
         id="rect2"
         width="640"
         height="800.70508"
         x="506.25681"
         y="-184.40977" /></clipPath></defs><sodipodi:namedview
     id="base"
     pagecolor="#1f1f1f"
     bordercolor="#666666"
     borderopacity="1.0"
     inkscape:pageopacity="0"
     inkscape:pageshadow="2"
     inkscape:zoom="0.57875767"
     inkscape:cx="907.11541"
     inkscape:cy="291.14085"
     inkscape:document-units="px"
     inkscape:current-layer="layer2"
     inkscape:document-rotation="0"
     showgrid="false"
     units="px"
     fit-margin-top="0"
     fit-margin-left="0"
     fit-margin-right="0"
     fit-margin-bottom="0"
     inkscape:showpageshadow="false"
     inkscape:pagecheckerboard="false"
     inkscape:deskcolor="#d1d1d1"
     inkscape:export-bgcolor="#ffffff00" /><metadata
     id="metadata5"><rdf:RDF><cc:Work
         rdf:about=""><dc:format>image/svg+xml</dc:format><dc:type
           rdf:resource="http://purl.org/dc/dcmitype/StillImage" /></cc:Work></rdf:RDF></metadata><g
     inkscape:groupmode="layer"
     id="layer2"
     inkscape:label="Content"
     style="display:inline"
     inkscape:export-filename="layer2.svg"
     inkscape:export-xdpi="96"
     inkscape:export-ydpi="96"
     transform="translate(-506.25681,184.40977)"><g
       id="light"
       style="display:inline"
       clip-path="url(#clipPath1)"><path
         id="rect4"
         style="fill:#f1fcfa;fill-opacity:1;fill-rule:evenodd;stroke-width:33.2217;stroke-linejoin:bevel"
         d="M 0,-184.40979 H 1920 V 600 c 0,0 -143.1845,58.74652 -414.3421,-51.83517 -164.6862,-67.16122 -412.9142,-45.41275 -533.56303,0 C 771.92034,623.5114 494.09154,625.51437 333.1337,489.41831 246.06473,415.79814 0,477.46284 0,358.10256 Z"
         sodipodi:nodetypes="cccssssc" /></g><g
       id="dark"
       style="display:none"><path
         id="path5"
         style="display:inline;fill:#0e9888;fill-opacity:1;fill-rule:evenodd;stroke-width:33.2217;stroke-linejoin:bevel"
         d="M 0,-184.40979 H 1920 V 600 c 0,0 -143.1845,58.74652 -414.3421,-51.83517 -164.6862,-67.16122 -412.9142,-45.41275 -533.56303,0 C 771.92034,623.5114 494.09154,625.51437 333.1337,489.41831 246.06473,415.79814 0,477.46284 0,358.10256 Z"
         sodipodi:nodetypes="cccssssc" /></g><path
       sodipodi:type="star"
       style="display:none;opacity:0.311159;fill:#e7f9f5;fill-opacity:0.544018;fill-rule:evenodd;stroke:#e7f9f5;stroke-width:19.9;stroke-linejoin:bevel;stroke-dasharray:none;stroke-opacity:0.532731"
       id="path81"
       inkscape:flatsided="true"
       sodipodi:sides="5"
       sodipodi:cx="964.13409"
       sodipodi:cy="114.03737"
       sodipodi:r1="36.73436"
       sodipodi:r2="25.975115"
       sodipodi:arg1="0.85196633"
       sodipodi:arg2="1.4802849"
       inkscape:rounded="0"
       inkscape:randomized="0.002"
       d="m 988.26338,141.63958 -42.91045,3.94036 -17.08293,-39.64671 32.59831,-28.469785 37.0748,22.044227 z"
       transform="translate(5.1835166,-155.03653)"
       inkscape:transform-center-x="0.065412602"
       inkscape:transform-center-y="-0.055846097" /><path
       sodipodi:type="star"
       style="display:none;opacity:0.311159;fill:#e7f9f5;fill-opacity:0.544018;fill-rule:evenodd;stroke:#e7f9f5;stroke-width:19.9;stroke-linejoin:bevel;stroke-dasharray:none;stroke-opacity:0.532731"
       id="path83"
       inkscape:flatsided="true"
       sodipodi:sides="6"
       sodipodi:cx="1249.2275"
       sodipodi:cy="428.50403"
       sodipodi:r1="59.879028"
       sodipodi:r2="51.856758"
       sodipodi:arg1="0.80580349"
       sodipodi:arg2="1.3294023"
       inkscape:rounded="0"
       inkscape:randomized="0.002"
       d="m 1290.651,471.62982 -58.0253,14.30025 -41.5127,-43.10476 16.5809,-57.44245 58.324,-14.32434 41.3255,43.14258 z"
       transform="translate(-243.62528,-53.094035)"
       inkscape:transform-center-x="-0.0006572772"
       inkscape:transform-center-y="-0.009733855" /><g
       fill="currentColor"
       id="g115"
       transform="matrix(4.2706594,0,0,4.2706594,677.9001,421.78499)"
       style="display:inline;fill:#c7ebe5;fill-opacity:1"><path
         d="m 16,22 c -1.886,0 -2.828,0 -3.414,-0.586 -0.503,-0.502 -0.574,-1.267 -0.584,-2.664 L 12,17.25 V 6.75 l 0.002,-1.5 C 12.012,3.853 12.083,3.088 12.586,2.586 13.172,2 14.114,2 16,2 h 2 c 1.886,0 2.828,0 3.414,0.586 C 22,3.172 22,4.114 22,6 v 12 c 0,1.886 0,2.828 -0.586,3.414 C 20.828,22 19.886,22 18,22 Z"
         opacity="0.5"
         id="path113"
         style="fill:#c7ebe5;fill-opacity:1" /><path
         d="m 15,8.25 h -3 v 1.5 h 3 a 0.75,0.75 0 0 0 0,-1.5 z m -1,-3 H 12.002 L 12,6.75 h 2 a 0.75,0.75 0 0 0 0,-1.5 z m 0,6 h -2 v 1.5 h 2 a 0.75,0.75 0 0 0 0,-1.5 z m 1,3 h -3 v 1.5 h 3 a 0.75,0.75 0 0 0 0,-1.5 z m -1,3 h -2 l 0.002,1.5 H 14 a 0.75,0.75 0 0 0 0,-1.5 z M 8,14.98 V 7 A 7.85,7.85 0 0 1 5,7.59 7.85,7.85 0 0 1 2,7 v 7.98 c 0,0.622 0,0.934 0.038,1.24 a 5,5 0 0 0 0.25,1.056 c 0.102,0.29 0.241,0.569 0.52,1.126 l 1.468,2.937 a 0.809,0.809 0 0 0 1.448,0 l 1.468,-2.937 c 0.279,-0.557 0.418,-0.835 0.52,-1.126 a 5,5 0 0 0 0.25,-1.057 C 8,15.914 8,15.602 8,14.98 Z"
         id="path114"
         style="fill:#c7ebe5;fill-opacity:1" /><path
         d="M 5,2 A 3,3 0 0 1 8,5 V 7 A 7.85,7.85 0 0 1 5,7.589 7.85,7.85 0 0 1 2,7 V 5 A 3,3 0 0 1 5,2 Z"
         opacity="0.5"
         id="path115"
         style="fill:#c7ebe5;fill-opacity:1" /></g><g
       fill="currentColor"
       id="moon"
       transform="matrix(4.9617949,0,0,4.9617949,553.84126,-40.930258)"
       style="display:none;fill:#c7ebe5;fill-opacity:1"><path
         d="m 12,22 c 5.523,0 10,-4.477 10,-10 0,-0.463 -0.694,-0.54 -0.933,-0.143 A 6.5,6.5 0 1 1 12.143,2.933 C 12.54,2.693 12.463,2 12,2 6.477,2 2,6.477 2,12 2,17.523 6.477,22 12,22 Z"
         opacity="0.5"
         id="path1-9"
         style="fill:#c7ebe5;fill-opacity:1" /><path
         d="M 11.286,22 C 13.337,22 15,20.42 15,18.47 15,16.926 13.955,15.613 12.5,15.134 12.295,13.371 10.72,12 8.81,12 c -2.052,0 -3.715,1.58 -3.715,3.53 0,0.43 0.082,0.844 0.23,1.226 a 2.949,2.949 0 0 0 -0.54,-0.05 C 3.248,16.706 2,17.89 2,19.353 2,20.815 3.247,22 4.786,22 Z"
         id="path2-3"
         style="fill:#c7ebe5;fill-opacity:1" /></g><g
       fill="currentColor"
       id="sun"
       transform="matrix(5.0804537,0,0,5.0804537,557.41428,-43.040753)"
       style="display:inline;fill:#c7ebe5;fill-opacity:1;fill-rule:nonzero;stroke:none;stroke-opacity:0.532731"><path
         d="m 11.5,8 a 3.5,3.5 0 1 1 -7,0 3.5,3.5 0 0 1 7,0 z"
         opacity="0.5"
         id="path1-0"
         style="fill:#c7ebe5;fill-opacity:1;fill-rule:nonzero;stroke:none;stroke-opacity:0.532731" /><path
         fill-rule="evenodd"
         d="M 7.5,1.25 A 0.75,0.75 0 0 1 8.25,2 v 0.5 a 0.75,0.75 0 0 1 -1.5,0 V 2 A 0.75,0.75 0 0 1 7.5,1.25 Z M 3.08,3.08 a 0.75,0.75 0 0 1 1.062,0 L 4.358,3.297 A 0.75,0.75 0 0 1 3.297,4.357 L 3.081,4.141 a 0.75,0.75 0 0 1 0,-1.06 z m 8.839,0 a 0.75,0.75 0 0 1 0,1.061 l -0.216,0.216 a 0.75,0.75 0 1 1 -1.06,-1.06 l 0.215,-0.216 a 0.75,0.75 0 0 1 1.061,0 z M 1.25,7.5 A 0.75,0.75 0 0 1 2,6.75 h 0.5 a 0.75,0.75 0 0 1 0,1.5 H 2 A 0.75,0.75 0 0 1 1.25,7.5 Z m 3.108,3.143 a 0.75,0.75 0 0 1 0,1.06 l -0.216,0.216 a 0.75,0.75 0 0 1 -1.061,-1.06 l 0.216,-0.216 a 0.75,0.75 0 0 1 1.06,0 z"
         clip-rule="evenodd"
         opacity="0.5"
         id="path2-62"
         style="fill:#c7ebe5;fill-opacity:1;fill-rule:nonzero;stroke:none;stroke-opacity:0.532731" /><path
         d="M 16.286,22 C 19.442,22 22,19.472 22,16.353 22,13.881 20.393,11.78 18.155,11.015 17.837,8.194 15.415,6 12.476,6 9.32,6 6.762,8.528 6.762,11.647 c 0,0.69 0.125,1.35 0.354,1.962 a 4.351,4.351 0 0 0 -0.83,-0.08 C 3.919,13.53 2,15.426 2,17.765 2,20.104 3.919,22 6.286,22 Z"
         id="path3-6"
         style="fill:#c7ebe5;fill-opacity:1;fill-rule:nonzero;stroke:none;stroke-opacity:0.532731" /></g></g></svg>
