<?xml version="1.0" encoding="UTF-8" standalone="no"?>
<svg
   xmlns:dc="http://purl.org/dc/elements/1.1/"
   xmlns:cc="http://creativecommons.org/ns#"
   xmlns:rdf="http://www.w3.org/1999/02/22-rdf-syntax-ns#"
   xmlns:svg="http://www.w3.org/2000/svg"
   xmlns="http://www.w3.org/2000/svg"
   xmlns:sodipodi="http://sodipodi.sourceforge.net/DTD/sodipodi-0.dtd"
   xmlns:inkscape="http://www.inkscape.org/namespaces/inkscape"
   id="b76bd6b3-ad77-41ff-b778-1d1d054fe577"
   data-name="Layer 1"
   width="570"
   height="511.67482"
   viewBox="0 0 570 511.67482"
   version="1.1"
   sodipodi:docname="mail.svg"
   inkscape:version="1.0.1 (3bc2e813f5, 2020-09-07)">
  <metadata
     id="metadata23">
    <rdf:RDF>
      <cc:Work
         rdf:about="">
        <dc:format>image/svg+xml</dc:format>
        <dc:type
           rdf:resource="http://purl.org/dc/dcmitype/StillImage" />
      </cc:Work>
    </rdf:RDF>
  </metadata>
  <defs
     id="defs21" />
  <sodipodi:namedview
     pagecolor="#ffffff"
     bordercolor="#666666"
     borderopacity="1"
     objecttolerance="10"
     gridtolerance="10"
     guidetolerance="10"
     inkscape:pageopacity="0"
     inkscape:pageshadow="2"
     inkscape:window-width="640"
     inkscape:window-height="480"
     id="namedview19"
     showgrid="false"
     inkscape:zoom="1.4169155"
     inkscape:cx="285"
     inkscape:cy="199.37675"
     inkscape:current-layer="b76bd6b3-ad77-41ff-b778-1d1d054fe577" />
  <path
     d="M879.99927,389.83741a.99678.99678,0,0,1-.5708-.1792L602.86963,197.05469a5.01548,5.01548,0,0,0-5.72852.00977L322.57434,389.65626a1.00019,1.00019,0,0,1-1.14868-1.6377l274.567-192.5918a7.02216,7.02216,0,0,1,8.02-.01318l276.55883,192.603a1.00019,1.00019,0,0,1-.57226,1.8208Z"
     transform="translate(-315 -194.16259)"
     fill="#3f3d56"
     id="path2" />
  <polygon
     points="23.264 202.502 285.276 8.319 549.276 216.319 298.776 364.819 162.776 333.819 23.264 202.502"
     fill="#e6e6e6"
     id="polygon4" />
  <path
     d="M489.25553,650.70367H359.81522a6.04737,6.04737,0,1,1,0-12.09473H489.25553a6.04737,6.04737,0,1,1,0,12.09473Z"
     transform="translate(-315 -194.16259)"
     fill="#f57e7e"
     id="path6" />
  <path
     d="M406.25553,624.70367H359.81522a6.04737,6.04737,0,1,1,0-12.09473h46.44031a6.04737,6.04737,0,1,1,0,12.09473Z"
     transform="translate(-315 -194.16259)"
     fill="#f57e7e"
     id="path8" />
  <path
     d="M603.96016,504.82207a7.56366,7.56366,0,0,1-2.86914-.562L439.5002,437.21123v-209.874a7.00817,7.00817,0,0,1,7-7h310a7.00818,7.00818,0,0,1,7,7v210.0205l-.30371.12989L606.91622,504.22734A7.61624,7.61624,0,0,1,603.96016,504.82207Z"
     transform="translate(-315 -194.16259)"
     fill="#fff"
     id="path10" />
  <path
     d="M603.96016,505.32158a8.07177,8.07177,0,0,1-3.05957-.59863L439.0002,437.54521v-210.208a7.50851,7.50851,0,0,1,7.5-7.5h310a7.50851,7.50851,0,0,1,7.5,7.5V437.68779l-156.8877,66.999A8.10957,8.10957,0,0,1,603.96016,505.32158Zm-162.96-69.1123,160.66309,66.66455a6.1182,6.1182,0,0,0,4.668-.02784l155.669-66.47851V227.33721a5.50653,5.50653,0,0,0-5.5-5.5h-310a5.50653,5.50653,0,0,0-5.5,5.5Z"
     transform="translate(-315 -194.16259)"
     fill="#3f3d56"
     id="path12" />
  <path
     d="M878,387.83741h-.2002L763,436.85743l-157.06982,67.07a5.06614,5.06614,0,0,1-3.88038.02L440,436.71741l-117.62012-48.8-.17968-.08H322a7.00778,7.00778,0,0,0-7,7v304a7.00779,7.00779,0,0,0,7,7H878a7.00779,7.00779,0,0,0,7-7v-304A7.00778,7.00778,0,0,0,878,387.83741Zm5,311a5.002,5.002,0,0,1-5,5H322a5.002,5.002,0,0,1-5-5v-304a5.01106,5.01106,0,0,1,4.81006-5L440,438.87739l161.28027,66.92a7.12081,7.12081,0,0,0,5.43994-.03L763,439.02741l115.2002-49.19a5.01621,5.01621,0,0,1,4.7998,5Z"
     transform="translate(-315 -194.16259)"
     fill="#3f3d56"
     id="path14" />
  <path
     d="M602.345,445.30958a27.49862,27.49862,0,0,1-16.5459-5.4961l-.2959-.22217-62.311-47.70752a27.68337,27.68337,0,1,1,33.67407-43.94921l40.36035,30.94775,95.37793-124.38672a27.68235,27.68235,0,0,1,38.81323-5.12353l-.593.80517.6084-.79346a27.71447,27.71447,0,0,1,5.12353,38.81348L624.36938,434.50586A27.69447,27.69447,0,0,1,602.345,445.30958Z"
     transform="translate(-315 -194.16259)"
     fill="#f57e7e"
     id="path16" />
  <path
     style="fill:#ffffff;stroke:none;stroke-width:0.705758px;stroke-linecap:butt;stroke-linejoin:miter;stroke-opacity:1"
     d="m 3.7536909,507.79158 c -1.4060956,-1.4061 -1.412223,-2.1769 -1.2350772,-155.36713 l 0.1780289,-153.95403 1.7928431,-1.33854 1.7928431,-1.33854 8.9793832,3.73254 8.979383,3.73254 69.258648,65.21077 69.258657,65.21077 67.8255,15.46604 c 61.21335,13.9583 68.00956,15.37577 69.7135,14.53993 4.08251,-2.00258 248.28929,-147.04646 248.2961,-147.47267 0.004,-0.25001 -2.37467,-2.27898 -5.28593,-4.50882 -2.91125,-2.22984 -5.29319,-4.25612 -5.29319,-4.50284 0,-0.24672 5.78265,-2.91495 12.85033,-5.92941 l 12.85032,-5.48082 1.79417,1.33953 1.79416,1.33952 0.17802,153.95403 c 0.17715,153.19023 0.17102,153.96103 -1.23507,155.36713 -1.40889,1.40888 -2.2492,1.4131 -281.24631,1.4131 -278.9971064,0 -279.8374251,-0.004 -281.2463091,-1.4131 z M 178.37378,454.9147 c 2.48314,-2.33299 2.52439,-6.47186 0.0888,-8.90747 l -1.73231,-1.73232 h -66.98396 c -65.737308,0 -67.017075,0.026 -68.764205,1.40035 -3.610579,2.84009 -2.962785,8.49224 1.181357,10.30759 1.780876,0.78012 14.100999,0.92398 68.281098,0.79735 l 66.10815,-0.15452 z M 95.645432,428.9211 c 2.185889,-2.18694 2.185896,-6.6279 1.5e-5,-8.81485 -1.582501,-1.58328 -1.71987,-1.59257 -26.513637,-1.79334 -15.632045,-0.12659 -25.624052,0.0647 -26.803766,0.51328 -1.046523,0.39789 -2.396087,1.79552 -3.042321,3.15069 -0.988738,2.07341 -1.026163,2.7622 -0.251675,4.63197 1.740357,4.2016 2.053971,4.24438 29.808602,4.0659 25.119203,-0.16153 25.217875,-0.16799 26.802782,-1.75365 z"
     id="path848" />
  <path
     style="fill:#ffffff;stroke:none;stroke-width:0.705758px;stroke-linecap:butt;stroke-linejoin:miter;stroke-opacity:1"
     d="m 17.639535,197.73894 c -3.814591,-1.62229 -6.92619,-3.20932 -6.914666,-3.52673 0.01152,-0.31741 25.363942,-18.35552 56.338706,-40.0847 l 56.317755,-39.5076 0.20567,6.15245 c 0.11313,3.38384 0.0621,6.52659 -0.11337,6.98388 -0.38132,0.9937 -97.44191,73.05409 -98.302174,72.98218 -0.327967,-0.0275 -3.717331,-1.37719 -7.531921,-2.99948 z"
     id="path850" />
  <path
     style="fill:#ffffff;stroke:none;stroke-width:0.705758px;stroke-linecap:butt;stroke-linejoin:miter;stroke-opacity:1"
     d="m 251.53529,24.789958 c 0.16174,-0.145456 7.35907,-5.226917 15.99408,-11.292135 10.3545,-7.272987 16.3152,-11.0276686 17.50683,-11.0276686 1.18754,0 7.26881,3.8097888 17.7431,11.1156946 l 15.93628,11.115695 -6.11339,0.204186 -6.1134,0.204185 -10.38853,-8.143967 c -5.71369,-4.479183 -10.60733,-8.1439681 -10.87475,-8.1439681 -0.26742,0 -5.38949,3.6523001 -11.38238,8.1162211 l -10.89616,8.116222 h -5.85287 c -3.21908,0 -5.72055,-0.119009 -5.55881,-0.264465 z"
     id="path852" />
  <path
     style="fill:#ffffff;stroke:none;stroke-width:0.705758px;stroke-linecap:butt;stroke-linejoin:miter;stroke-opacity:1"
     d="m 492.11659,171.40593 -42.67488,-33.61689 -0.19376,-11.16428 -0.19376,-11.16427 53.8314,37.46091 c 29.60727,20.60349 54.89592,38.25513 56.19702,39.22585 l 2.36562,1.76496 -12.92576,5.5553 c -7.10917,3.05542 -13.10694,5.5553 -13.32838,5.5553 -0.22145,0 -19.60632,-15.1276 -43.0775,-33.61688 z"
     id="path854" />
</svg>
