<?xml version="1.0" standalone="no"?>
<!DOCTYPE svg PUBLIC "-//W3C//DTD SVG 20010904//EN"
 "http://www.w3.org/TR/2001/REC-SVG-20010904/DTD/svg10.dtd">
<svg version="1.0" xmlns="http://www.w3.org/2000/svg"
 width="700.000000pt" height="700.000000pt" viewBox="0 0 700.000000 700.000000"
 preserveAspectRatio="xMidYMid meet">
<metadata>
Created by potrace 1.14, written by Peter Selinger 2001-2017
</metadata>
<g transform="translate(0.000000,700.000000) scale(0.100000,-0.100000)"
fill="#000000" stroke="none">
<path d="M3640 4877 c0 -19 143 -277 227 -410 90 -141 187 -275 424 -579 391
-502 480 -640 690 -1076 56 -117 106 -209 110 -205 5 5 71 150 147 323 274
619 685 1548 766 1730 46 102 86 196 90 208 l7 22 -1230 0 c-985 0 -1231 -3
-1231 -13z"/>
<path d="M2741 4869 c-205 -5 -377 -9 -381 -11 -4 -2 321 -670 723 -1485 l730
-1483 613 0 613 0 8 58 c14 101 9 319 -11 427 -46 250 -168 532 -367 847 -100
158 -204 305 -474 668 -365 490 -515 711 -615 903 l-45 87 -210 -2 c-115 -1
-378 -5 -584 -9z"/>
<path d="M1396 4859 c-208 -5 -380 -10 -382 -12 -2 -2 324 -669 725 -1483
l729 -1479 611 -3 c336 -1 611 0 611 4 0 5 -599 1195 -1231 2449 l-268 530
-208 1 c-114 1 -379 -3 -587 -7z"/>
</g>
</svg>
