<?xml version="1.0" encoding="UTF-8" standalone="no"?>
<svg
   xmlns:dc="http://purl.org/dc/elements/1.1/"
   xmlns:cc="http://creativecommons.org/ns#"
   xmlns:rdf="http://www.w3.org/1999/02/22-rdf-syntax-ns#"
   xmlns:svg="http://www.w3.org/2000/svg"
   xmlns="http://www.w3.org/2000/svg"
   xmlns:sodipodi="http://sodipodi.sourceforge.net/DTD/sodipodi-0.dtd"
   xmlns:inkscape="http://www.inkscape.org/namespaces/inkscape"
   width="1500"
   height="500"
   viewBox="0 0 396.87499 132.29167"
   version="1.1"
   id="svg8"
   inkscape:version="1.0.1 (3bc2e813f5, 2020-09-07)"
   sodipodi:docname="hero-1.svg">
  <defs
     id="defs2">
    <inkscape:path-effect
       effect="spiro"
       id="path-effect994"
       is_visible="true"
       lpeversion="1" />
    <inkscape:path-effect
       effect="spiro"
       id="path-effect984"
       is_visible="true"
       lpeversion="1" />
    <inkscape:path-effect
       effect="spiro"
       id="path-effect980"
       is_visible="true"
       lpeversion="1" />
    <inkscape:path-effect
       effect="spiro"
       id="path-effect976"
       is_visible="true"
       lpeversion="1" />
    <inkscape:path-effect
       effect="spiro"
       id="path-effect972"
       is_visible="true"
       lpeversion="1" />
  </defs>
  <sodipodi:namedview
     id="base"
     pagecolor="#ffffff"
     bordercolor="#666666"
     borderopacity="1.0"
     inkscape:pageopacity="0.0"
     inkscape:pageshadow="2"
     inkscape:zoom="0.7"
     inkscape:cx="564.8169"
     inkscape:cy="109.28425"
     inkscape:document-units="mm"
     inkscape:current-layer="layer1"
     inkscape:document-rotation="0"
     showgrid="false"
     units="px"
     inkscape:snap-page="true"
     inkscape:snap-to-guides="false"
     inkscape:snap-grids="false" />
  <metadata
     id="metadata5">
    <rdf:RDF>
      <cc:Work
         rdf:about="">
        <dc:format>image/svg+xml</dc:format>
        <dc:type
           rdf:resource="http://purl.org/dc/dcmitype/StillImage" />
        <dc:title></dc:title>
      </cc:Work>
    </rdf:RDF>
  </metadata>
  <g
     inkscape:groupmode="layer"
     id="layer2"
     inkscape:label="bg"
     style="display:none">
    <rect
       style="fill:#333333;fill-rule:evenodd;stroke-width:0.997464;stroke-linecap:round;stroke-linejoin:bevel"
       id="rect834"
       width="396.875"
       height="132.29167"
       x="1.6209256e-14"
       y="-4.8294702e-15" />
  </g>
  <g
     inkscape:label="Layer 1"
     inkscape:groupmode="layer"
     id="layer1"
     style="display:inline">
    <path
       style="display:inline;fill:#ffffff;fill-opacity:1;stroke:none;stroke-width:0.267269px;stroke-linecap:butt;stroke-linejoin:miter;stroke-opacity:1;opacity:0.2"
       d="M 70.939823,122.78163 C 45.760462,121.12969 22.187198,112.17236 2.8103505,96.893868 l -2.54223194,-2.004528 0.00958,-24.455158 0.00958,-24.455162 0.75933084,2.80633 C 2.5853721,54.472299 4.7103413,59.657621 7.4733683,64.467844 17.7262,82.317255 34.959275,93.794526 55.585826,96.510871 c 4.644411,0.611637 14.01967,0.412577 18.56123,-0.394097 13.025469,-2.313578 23.743002,-6.951145 45.435824,-19.660445 14.88998,-8.723685 22.08421,-12.688186 31.27053,-17.232153 26.14248,-12.931254 49.59179,-20.59636 72.33414,-23.644577 8.68124,-1.163569 11.90658,-1.361069 22.012,-1.347885 11.86787,0.01548 16.57934,0.384519 35.86116,2.808909 19.47384,2.448533 25.76121,3.066658 35.05306,3.446145 23.43264,0.957008 45.50973,-3.702518 66.46233,-14.02734 3.82206,-1.883396 10.80891,-5.85458 13.56391,-7.709439 l 0.73499,-0.494847 v 18.605974 18.605971 l -5.67947,0.0021 c -21.61233,0.0085 -43.32647,4.244848 -63.67698,12.422989 -11.04646,4.439184 -18.96993,8.610203 -36.18555,19.048558 -4.46722,2.708624 -9.90494,5.992078 -12.08378,7.296579 -22.63439,13.551437 -39.08659,19.843977 -55.92557,21.390037 -4.4718,0.41058 -15.59797,0.18323 -25.56444,-0.52236 -20.88804,-1.47883 -31.70454,-0.91552 -63.87742,3.32661 -22.1745,2.9238 -30.4643,3.81765 -40.624961,4.38044 -5.714828,0.31654 -17.267624,0.30072 -22.317006,-0.0306 z M 203.77278,95.589197 c 8.78367,-1.048284 16.85406,-2.659685 26.25692,-5.242658 7.80645,-2.14444 10.46176,-3.122007 14.62224,-5.383282 15.0235,-8.165457 24.30279,-16.226977 25.14533,-21.845343 0.6723,-4.483079 -4.1307,-7.945618 -13.52984,-9.753868 -10.26281,-1.974402 -22.37314,-1.935215 -33.6,0.10872 -21.19252,3.858266 -44.5297,14.77023 -64.15068,29.995492 l -2.22562,1.727015 0.75564,0.799082 c 1.15812,1.224679 3.47014,2.93476 5.83377,4.31493 5.26805,3.076124 12.71891,5.115032 21.5152,5.887589 3.19257,0.280397 15.05224,-0.0915 19.37704,-0.607677 z"
       id="path1022" />
    <path
       style="display:inline;opacity:0.2;mix-blend-mode:normal;fill:#ffffff;fill-opacity:1;stroke:none;stroke-width:0.37866px;stroke-linecap:butt;stroke-linejoin:miter;stroke-opacity:1"
       d="M 48.140522,74.209602 C 35.985127,73.012386 24.893814,67.998111 16.255009,59.794469 8.0809931,52.032205 2.4936087,41.569626 0.57811176,30.43891 0.13331591,27.854257 0,23.950747 0,13.511712 V -0.05615036 h 31.809548 c 30.090725,0 31.898299,0.03776848 33.451974,0.69894101 0.903337,0.38441785 4.201081,1.56903405 7.328321,2.63247995 21.570283,7.3351774 44.676867,11.5284484 63.492417,11.5223014 11.40694,-0.0037 16.34529,-0.799325 27.67133,-4.458011 10.87277,-3.5122651 17.56647,-4.6463142 29.37709,-4.9770666 9.63698,-0.2698815 16.6962,0.1659912 34.87345,2.1532666 18.2978,2.0004554 24.09815,2.526346 35.06298,3.178993 41.34228,2.460771 82.6803,-0.438327 123.89513,-8.6889496 4.72236,-0.9453448 8.88456,-1.80748689 9.2494,-1.91587161 0.55391,-0.16453907 0.66336,0.0518591 0.66336,1.31115361 v 1.5082173 l -2.74817,0.6256637 C 361.94518,10.861601 320.88447,14.430044 252.64297,15.83083 c -21.6817,0.445057 -33.68287,0.913414 -43.97087,1.716004 -28.17149,2.197721 -50.27468,7.615913 -69.36783,17.004256 -6.80776,3.347463 -12.77292,6.885139 -26.91321,15.96107 C 96.796307,60.521635 90.500385,64.07784 81.852465,67.761671 70.070144,72.780682 57.684547,75.149618 48.140522,74.209602 Z"
       id="path1013" />
  </g>
</svg>
