<?xml version="1.0" encoding="UTF-8" standalone="no"?>
<svg
   xmlns:dc="http://purl.org/dc/elements/1.1/"
   xmlns:cc="http://creativecommons.org/ns#"
   xmlns:rdf="http://www.w3.org/1999/02/22-rdf-syntax-ns#"
   xmlns:svg="http://www.w3.org/2000/svg"
   xmlns="http://www.w3.org/2000/svg"
   xmlns:sodipodi="http://sodipodi.sourceforge.net/DTD/sodipodi-0.dtd"
   xmlns:inkscape="http://www.inkscape.org/namespaces/inkscape"
   id="bf59fb71-ac1e-4020-97b5-5970fed6e003"
   data-name="Layer 1"
   width="561"
   height="493"
   viewBox="0 0 561 493"
   version="1.1"
   sodipodi:docname="contact.svg"
   inkscape:version="1.0.1 (3bc2e813f5, 2020-09-07)">
  <metadata
     id="metadata27">
    <rdf:RDF>
      <cc:Work
         rdf:about="">
        <dc:format>image/svg+xml</dc:format>
        <dc:type
           rdf:resource="http://purl.org/dc/dcmitype/StillImage" />
      </cc:Work>
    </rdf:RDF>
  </metadata>
  <defs
     id="defs25" />
  <sodipodi:namedview
     pagecolor="#ffffff"
     bordercolor="#666666"
     borderopacity="1"
     objecttolerance="10"
     gridtolerance="10"
     guidetolerance="10"
     inkscape:pageopacity="0"
     inkscape:pageshadow="2"
     inkscape:window-width="640"
     inkscape:window-height="480"
     id="namedview23"
     showgrid="false"
     inkscape:zoom="1.4705882"
     inkscape:cx="280.5"
     inkscape:cy="192.1"
     inkscape:current-layer="bf59fb71-ac1e-4020-97b5-5970fed6e003" />
  <path
     d="M876.03027,689.45c-.98047,1.37-1.97021,2.73-2.95019,4.08A16.82838,16.82838,0,0,1,863.5,696.5h-527a16.90383,16.90383,0,0,1-9.21-2.72c-.91016-1.2-1.81006-2.41-2.72022-3.62006l.91016-.5L592.27,541.78a16.01919,16.01919,0,0,1,15.47021-.02L875.12988,688.95Z"
     transform="translate(-319.5 -203.5)"
     fill="#f57e7e"
     id="path2" />
  <path
     d="M863.5,378.5,632.28169,244.96964a64.023,64.023,0,0,0-63.98147-.03153L336.5,378.5a17.0241,17.0241,0,0,0-17,17v284a17.01984,17.01984,0,0,0,17,17h527a17.02879,17.02879,0,0,0,17-17v-284A17.02408,17.02408,0,0,0,863.5,378.5Zm15,301a15.03649,15.03649,0,0,1-15,15h-527a15.02706,15.02706,0,0,1-15-15v-284a15.01828,15.01828,0,0,1,15-15L568.30022,246.93811a64.023,64.023,0,0,1,63.98147.03153L863.5,380.5a15.01828,15.01828,0,0,1,15,15Z"
     transform="translate(-319.5 -203.5)"
     fill="#3f3d56"
     id="path4" />
  <path
     d="M600.2998,539.18018a15.36345,15.36345,0,0,1-5.116-.8584l-.30249-.10694-.06128-.67236c-.18848.09277-.37866.18164-.56909.26563l-.20118.08837-.20141-.08886c-.42139-.18506-.83985-.39453-1.24365-.62207L408.5,433.73242V222.5A18.5208,18.5208,0,0,1,427,204H773a18.5208,18.5208,0,0,1,18.5,18.5V434.00244l-.25488.14356-183.25,103.04A15.75694,15.75694,0,0,1,600.2998,539.18018Z"
     transform="translate(-319.5 -203.5)"
     fill="#fff"
     id="path6" />
  <path
     d="M600.2998,539.68018a15.85649,15.85649,0,0,1-5.282-.88672l-.60547-.21338-.02588-.28565-.33691.14795-.40234-.17676c-.43653-.19189-.86963-.40869-1.28784-.64453L408,434.02539V222.5a19.02154,19.02154,0,0,1,19-19H773a19.02162,19.02162,0,0,1,19,19V434.29492L608.24,537.62158A16.2527,16.2527,0,0,1,600.2998,539.68018Zm-4.01342-2.57666a14.49247,14.49247,0,0,0,10.97436-1.22559L790,433.125V222.5a17.01917,17.01917,0,0,0-17-17H427a17.01909,17.01909,0,0,0-17,17V432.85449l11.98962,6.7334,171.35047,96.29053q.34973.197.71.3706.36035-.17358.70923-.37011l1.34668-.75879Z"
     transform="translate(-319.5 -203.5)"
     fill="#3f3d56"
     id="path8" />
  <path
     d="M876.06982,385.88,803.5,426.68,791,433.71,607.75,536.75a15.24213,15.24213,0,0,1-7.4502,1.93,14.91079,14.91079,0,0,1-4.9497-.83,12.05366,12.05366,0,0,1-1.3003-.5q-.61449-.27-1.1997-.6L421.5,440.46,409,433.44l-84.91992-47.72a1.011,1.011,0,0,1-.37988-1.37.99933.99933,0,0,1,1.35986-.38L409,431.14l12.5,7.02L593.83008,535a13.07441,13.07441,0,0,0,1.77978.83c.26026.1.53028.19.8003.27A13.26424,13.26424,0,0,0,606.77,535L791,431.42l12.5-7.03,71.58984-40.25a.99849.99849,0,1,1,.98,1.74Z"
     transform="translate(-319.5 -203.5)"
     fill="#3f3d56"
     id="path10" />
  <path
     d="M483.5748,269.5h-28a8,8,0,0,1,0-16h28a8,8,0,0,1,0,16Z"
     transform="translate(-319.5 -203.5)"
     fill="#f57e7e"
     id="path12" />
  <path
     d="M516.5748,296.5h-61a8,8,0,0,1,0-16h61a8,8,0,0,1,0,16Z"
     transform="translate(-319.5 -203.5)"
     fill="#e6e6e6"
     id="path14" />
  <path
     d="M687,368.5H514a8,8,0,0,1,0-16H687a8,8,0,0,1,0,16Z"
     transform="translate(-319.5 -203.5)"
     fill="#f57e7e"
     id="path16" />
  <path
     d="M703,399.5H497a8,8,0,0,1,0-16H703a8,8,0,0,1,0,16Z"
     transform="translate(-319.5 -203.5)"
     fill="#e6e6e6"
     id="path18" />
  <path
     d="M703,429.5H497a8,8,0,0,1,0-16H703a8,8,0,0,1,0,16Z"
     transform="translate(-319.5 -203.5)"
     fill="#e6e6e6"
     id="path20" />
  <path
     style="fill:#e6e6e6;stroke:none;stroke-width:0.68px;stroke-linecap:butt;stroke-linejoin:miter;stroke-opacity:1"
     d="M 4.860584,484.13343 C 4.1006859,483.16737 3.138338,480.78914 2.7220331,478.84848 2.1759059,476.30263 2.0228849,435.36289 2.1725576,331.84 2.3726487,193.44459 2.4249165,188.26963 3.6474802,185.81 c 0.6971141,-1.4025 1.4854544,-2.55 1.7518674,-2.55 1.0504205,0 82.0452794,45.79789 83.0006524,46.93205 1.043086,1.23829 181.1944,102.70954 185.80308,104.65464 2.9355,1.23893 3.17564,1.79059 1.01546,2.33276 -1.1482,0.28818 -244.691947,134.88459 -265.4674311,146.71272 l -3.5088918,1.99772 z"
     id="path852" />
  <path
     style="fill:#e6e6e6;stroke:none;stroke-width:0.68px;stroke-linecap:butt;stroke-linejoin:miter;stroke-opacity:1"
     d="M 421.94,411.60773 C 348.636,371.22492 287.8185,337.8745 286.79,337.4957 c -2.22437,-0.81926 -2.39891,-1.61877 -0.46387,-2.12479 2.3467,-0.61368 186.22101,-104.12011 186.26272,-104.85091 0.0298,-0.52154 80.52525,-46.27459 82.86995,-47.10267 0.28447,-0.10047 1.11212,0.97053 1.83921,2.38 1.29544,2.5112 1.32553,5.45749 1.49824,146.69716 0.15459,126.42302 0.051,144.56536 -0.84313,147.64103 -0.56066,1.92861 -1.40498,3.81907 -1.87625,4.20103 -0.62564,0.50707 -36.82274,-19.11895 -134.13687,-72.72882 z"
     id="path854" />
  <path
     style="fill:#e6e6e6;stroke:none;stroke-width:0.68px;stroke-linecap:butt;stroke-linejoin:miter;stroke-opacity:1"
     d="m 472.6,181.52726 c 0,-24.91533 0.25475,-45.19859 0.56612,-45.07393 0.31137,0.12467 16.12319,9.22464 35.13738,20.22217 24.40023,14.11273 35.68824,20.27687 38.3679,20.95187 3.55265,0.89492 7.57876,3.13011 6.83844,3.79653 -0.33378,0.30046 -76.55391,43.13028 -79.37984,44.60533 l -1.53,0.79862 z"
     id="path856" />
  <path
     style="fill:#e6e6e6;stroke:none;stroke-width:0.68px;stroke-linecap:butt;stroke-linejoin:miter;stroke-opacity:1"
     d="M 49.64,204.92885 C 28.509,193.05659 10.335464,182.82255 9.2543651,182.18653 l -1.965635,-1.15641 1.625635,-1.24306 c 0.8940992,-0.68369 3.2309129,-1.60738 5.1929199,-2.05266 2.547613,-0.57819 13.626756,-6.60309 38.76,-21.07792 L 88.06,136.38817 l 0.179105,22.80548 c 0.09851,12.54301 0.09851,32.82149 0,45.06329 L 88.06,226.51475 Z"
     id="path858" />
</svg>
