<?xml version="1.0" encoding="UTF-8" standalone="no"?>
<svg
   xmlns:dc="http://purl.org/dc/elements/1.1/"
   xmlns:cc="http://creativecommons.org/ns#"
   xmlns:rdf="http://www.w3.org/1999/02/22-rdf-syntax-ns#"
   xmlns:svg="http://www.w3.org/2000/svg"
   xmlns="http://www.w3.org/2000/svg"
   xmlns:xlink="http://www.w3.org/1999/xlink"
   xmlns:sodipodi="http://sodipodi.sourceforge.net/DTD/sodipodi-0.dtd"
   xmlns:inkscape="http://www.inkscape.org/namespaces/inkscape"
   id="a622e68e-7a65-46e9-94a9-d455de519afc"
   data-name="Layer 1"
   width="1171.4399"
   height="502"
   viewBox="0 0 1171.4399 502"
   version="1.1"
   sodipodi:docname="new-home.svg"
   inkscape:version="1.0.1 (3bc2e813f5, 2020-09-07)">
  <metadata
     id="metadata167">
    <rdf:RDF>
      <cc:Work
         rdf:about="">
        <dc:format>image/svg+xml</dc:format>
        <dc:type
           rdf:resource="http://purl.org/dc/dcmitype/StillImage" />
        <dc:title>responsive</dc:title>
      </cc:Work>
    </rdf:RDF>
  </metadata>
  <sodipodi:namedview
     pagecolor="#535353"
     bordercolor="#666666"
     borderopacity="1"
     objecttolerance="10"
     gridtolerance="10"
     guidetolerance="10"
     inkscape:pageopacity="0"
     inkscape:pageshadow="2"
     inkscape:window-width="640"
     inkscape:window-height="480"
     id="namedview165"
     showgrid="false"
     inkscape:zoom="0.93971306"
     inkscape:cx="592.35086"
     inkscape:cy="214.15547"
     inkscape:current-layer="layer4"
     inkscape:document-rotation="0"
     fit-margin-left="0"
     fit-margin-right="0"
     fit-margin-top="0"
     fit-margin-bottom="0"
     inkscape:snap-page="false"
     inkscape:snap-grids="true"
     inkscape:snap-to-guides="false"
     showguides="true"
     inkscape:guide-bbox="true"
     inkscape:snap-global="true"
     inkscape:pagecheckerboard="true"
     lock-margins="false" />
  <defs
     id="defs12">
    <inkscape:path-effect
       effect="spiro"
       id="path-effect982"
       is_visible="true"
       lpeversion="1" />
    <inkscape:path-effect
       effect="spiro"
       id="path-effect968"
       is_visible="true"
       lpeversion="1" />
    <inkscape:path-effect
       effect="spiro"
       id="path-effect964"
       is_visible="true"
       lpeversion="1" />
    <inkscape:path-effect
       effect="spiro"
       id="path-effect951"
       is_visible="true"
       lpeversion="1" />
    <inkscape:path-effect
       effect="spiro"
       id="path-effect947"
       is_visible="true"
       lpeversion="1" />
    <inkscape:path-effect
       effect="spiro"
       id="path-effect937"
       is_visible="true"
       lpeversion="1" />
    <linearGradient
       id="341b0e5e-a21f-44db-b85f-76180f33f0d3"
       x1="599.5"
       y1="668.04999"
       x2="599.5"
       y2="199"
       gradientUnits="userSpaceOnUse">
      <stop
         offset="0"
         stop-color="gray"
         stop-opacity="0.25"
         id="stop2" />
      <stop
         offset="0.54"
         stop-color="gray"
         stop-opacity="0.12"
         id="stop4" />
      <stop
         offset="1"
         stop-color="gray"
         stop-opacity="0.1"
         id="stop6" />
    </linearGradient>
    <linearGradient
       id="9c19d1ba-0c1d-4cca-8c15-e6f3831a5e67"
       x1="485.72"
       y1="258.88"
       x2="485.72"
       y2="71.120003"
       xlink:href="#341b0e5e-a21f-44db-b85f-76180f33f0d3" />
    <linearGradient
       id="fe76f7c7-2126-4e48-920d-21143a22d340"
       x1="132"
       y1="515"
       x2="303"
       y2="515"
       xlink:href="#341b0e5e-a21f-44db-b85f-76180f33f0d3"
       gradientTransform="translate(35.75,-198.88)" />
    <linearGradient
       id="2cf89a04-5a05-413b-983a-d2bc296cbb5e"
       x1="933"
       y1="568.28003"
       x2="1031"
       y2="568.28003"
       xlink:href="#341b0e5e-a21f-44db-b85f-76180f33f0d3" />
    <linearGradient
       inkscape:collect="always"
       xlink:href="#341b0e5e-a21f-44db-b85f-76180f33f0d3"
       id="linearGradient1171"
       gradientUnits="userSpaceOnUse"
       x1="599.5"
       y1="668.04999"
       x2="599.5"
       y2="199" />
    <linearGradient
       inkscape:collect="always"
       xlink:href="#linearGradient1052"
       id="linearGradient1056"
       x1="59.878342"
       y1="96.087494"
       x2="64.263474"
       y2="96.087494"
       gradientUnits="userSpaceOnUse"
       gradientTransform="matrix(1.9779662,0,0,1.9779662,990.06067,76.044434)" />
    <linearGradient
       inkscape:collect="always"
       id="linearGradient1052">
      <stop
         style="stop-color:#fea544;stop-opacity:1;"
         offset="0"
         id="stop1048" />
      <stop
         style="stop-color:#fea544;stop-opacity:0;"
         offset="1"
         id="stop1050" />
    </linearGradient>
  </defs>
  <title
     id="title14">responsive</title>
  <g
     inkscape:groupmode="layer"
     id="layer4"
     inkscape:label="Canvas"
     style="display:inline"
     transform="translate(-120.00003)">
    <path
       d="m 329.23,367.18 h -72.4 l 1,-8.14 c 20.46,-18.37 33.69,-67.31 33.69,-67.31 a 6.78,6.78 0 0 0 -0.87,0.18 c -12,2.42 -20.54,7.35 -26.51,13.28 l 2.54,-21.66 c 37.8,-8.14 52.79,-58.14 52.79,-58.14 -24.12,5.35 -39.16,13.63 -48.5,21.49 l 3.72,-31.82 c 25.56,8.77 52,-37.82 52,-37.82 l -1,-0.21 0.5,-0.32 -0.76,0.27 c -28.25,-6.09 -43.35,10.06 -48.25,16.77 l 0.37,-3.12 q -1.12,3 -2.18,5.88 v 0 0.08 q -3,8.13 -5.49,16.06 v 0 0 q -2.17,6.77 -4.06,13.4 v -0.06 c 0,0 -1.17,-28.46 -31.18,-35.95 0,0 3.15,62.07 26.93,51.91 v 0 c -2.2,9 -4,17.66 -5.56,26.07 v 0 q -1.49,8.21 -2.6,16 l -0.14,0.16 0.14,-0.12 -0.06,0.41 v 0 0 q -1,7.07 -1.7,13.78 c 0.46,-8.62 -1.11,-33.52 -30.45,-56.92 0,0 -39,68.54 27.5,82 0.15,0.13 0.3,0.26 0.44,0.38 l -0.1,-0.31 0.6,0.13 0.27,-3.52 a 369.39,369.39 0 0 0 0.23,44.1 v 0 c 0.07,1 0.14,2 0.21,2.95 h -73.23 c -27.94,57.79 15.52,89.46 15.52,89.46 h 120 c 46.6,-58.74 16.59,-89.34 16.59,-89.34 z m -78,-65.68 z"
       fill="url(#fe76f7c7-2126-4e48-920d-21143a22d340)"
       id="path96"
       style="opacity:0.7;fill:url(#fe76f7c7-2126-4e48-920d-21143a22d340)" />
    <g
       opacity="0.7"
       id="g18"
       transform="translate(220)">
      <path
         d="M 852.69,199 H 346.31 A 16.37,16.37 0 0 0 330,215.42 v 348.52 a 16.37,16.37 0 0 0 16.31,16.42 h 174.16 v 60.16 h -7.94 a 8.3,8.3 0 0 0 -8.27,8.33 v 12.07 h 16.21 v 7.14 h 158.06 v -7.14 h 16.21 v -12.07 a 8.3,8.3 0 0 0 -8.27,-8.33 H 679 V 640 h -0.51 v -59.64 h 174.2 A 16.37,16.37 0 0 0 869,563.94 V 215.42 A 16.37,16.37 0 0 0 852.69,199 Z"
         transform="translate(-114.28,-199)"
         fill="url(#341b0e5e-a21f-44db-b85f-76180f33f0d3)"
         id="path16"
         style="fill:url(#linearGradient1171)" />
    </g>
    <rect
       x="627.71997"
       y="371"
       width="156"
       height="92"
       fill="#bdbdbd"
       id="rect20" />
    <g
       opacity="0.1"
       id="g24"
       transform="translate(220)">
      <path
         d="m 525.07,579 h 150.17 c 1.81,-7.87 3.26,-13 3.26,-13 h -157 c 0,0 1.61,5.11 3.57,13 z"
         transform="translate(-114.28,-199)"
         id="path22" />
    </g>
    <path
       d="m 455.82,3 h 499.8 a 16.1,16.1 0 0 1 16.1,16.1 V 327 h -532 V 19.1 A 16.1,16.1 0 0 1 455.82,3 Z"
       fill="#535461"
       id="path26" />
    <path
       d="m 955.62,377 h -499.8 a 16.1,16.1 0 0 1 -16.1,-16.1 V 327 h 532 v 33.9 a 16.1,16.1 0 0 1 -16.1,16.1 z"
       fill="#bdbdbd"
       id="path28" />
    <circle
       cx="705.71997"
       cy="352"
       r="9"
       fill="#535461"
       id="circle30" />
    <path
       d="m 619.89,436 h 171.66 a 8.17,8.17 0 0 1 8.17,8.17 V 456 h -188 v -11.83 a 8.17,8.17 0 0 1 8.17,-8.17 z"
       fill="#bdbdbd"
       id="path32" />
    <g
       opacity="0.5"
       id="g36"
       transform="translate(220)">
      <rect
         x="320.72"
         y="71.120003"
         width="330"
         height="187.75999"
         rx="4.5"
         ry="4.5"
         fill="url(#9c19d1ba-0c1d-4cca-8c15-e6f3831a5e67)"
         id="rect34"
         style="fill:url(#9c19d1ba-0c1d-4cca-8c15-e6f3831a5e67)" />
    </g>
    <rect
       x="475.5849"
       y="33.334732"
       width="460.2702"
       height="263.33054"
       rx="6.4415498"
       ry="6.4415498"
       fill="#fff"
       id="rect38"
       style="mix-blend-mode:normal;fill:#ffffff;fill-opacity:1;stroke-width:1.43146" />
    <g
       opacity="0.5"
       id="g42"
       transform="translate(220)"
       style="fill:#f57e7e;fill-opacity:1">
      <rect
         x="414.51999"
         y="98.910004"
         width="35.439999"
         height="31.9"
         rx="4.5"
         ry="4.5"
         fill="#e16b56"
         id="rect40"
         style="fill:#f57e7e;fill-opacity:1" />
    </g>
    <rect
       x="680.58997"
       y="98.910004"
       width="95.690002"
       height="3.54"
       rx="1.77"
       ry="1.77"
       fill="#e0e0e0"
       id="rect44" />
    <rect
       x="680.58997"
       y="109.55"
       width="79.540001"
       height="3.54"
       rx="1.77"
       ry="1.77"
       fill="#e0e0e0"
       id="rect46" />
    <g
       opacity="0.5"
       id="g50"
       transform="translate(220)"
       style="fill:#f57e7e;fill-opacity:1">
      <rect
         x="414.51999"
         y="148.53"
         width="35.439999"
         height="31.9"
         rx="4.5"
         ry="4.5"
         fill="#e16b56"
         id="rect48"
         style="fill:#f57e7e;fill-opacity:1" />
    </g>
    <rect
       x="680.58997"
       y="148.53"
       width="95.690002"
       height="3.54"
       rx="1.77"
       ry="1.77"
       fill="#e0e0e0"
       id="rect52" />
    <rect
       x="680.58997"
       y="159.16"
       width="95.690002"
       height="3.54"
       rx="1.77"
       ry="1.77"
       fill="#e0e0e0"
       id="rect54" />
    <g
       opacity="0.5"
       id="g58"
       transform="translate(220)"
       style="fill:#f57e7e;fill-opacity:1">
      <rect
         x="414.51999"
         y="198.14999"
         width="35.439999"
         height="31.9"
         rx="4.5"
         ry="4.5"
         fill="#e16b56"
         id="rect56"
         style="fill:#f57e7e;fill-opacity:1" />
    </g>
    <rect
       x="680.58997"
       y="198.14999"
       width="95.690002"
       height="3.54"
       rx="1.77"
       ry="1.77"
       fill="#e0e0e0"
       id="rect60" />
    <rect
       x="680.58997"
       y="208.78"
       width="96.330002"
       height="3.54"
       rx="1.59"
       ry="1.59"
       fill="#e0e0e0"
       id="rect62" />
    <g
       opacity="0.1"
       id="g94"
       transform="translate(220)">
      <rect
         x="408.22"
         y="435.5"
         width="156"
         height="3"
         id="rect92" />
    </g>
    <rect
       y="455.60001"
       width="1171.4399"
       height="32.93"
       fill="#e0e0e0"
       id="rect128"
       x="120.00003"
       style="stroke-width:1.09813" />
    <rect
       x="261.16"
       y="488.53"
       width="889.10999"
       height="13.47"
       fill="#e0e0e0"
       id="rect130" />
    <rect
       x="261.16"
       y="488.53"
       width="889.10999"
       height="4.4899998"
       opacity="0.1"
       id="rect132" />
    <g
       id="layer3"
       style="display:inline"
       transform="matrix(0.19441444,0,0,0.19441444,479.31982,23.685121)">
      <g
         id="g844"
         transform="matrix(0.69703725,0,0,0.69703725,205.82862,88.284288)">
        <path
           id="path4160"
           d="m 157.8,223.38 91.6,-1.6963 117.89,234.09 h -94.992 z"
           style="fill:#00989b;fill-rule:evenodd" />
        <path
           id="path4162"
           d="m 263,222.58 91.6,-1.6963 c 40.355,79.234 133.88,152.84 117.89,234.09 h -23.748 -23.748 -23.748 -23.748 z"
           style="fill:#00989b;fill-rule:evenodd" />
        <path
           id="path4394"
           d="m 476.9,399.08 79.158,-178.8 h -192.51 c 23.764,50.348 51.597,73.547 83.8,121.99 10.519,15.823 18.494,34.186 29.552,56.817 z"
           style="fill:#006565;fill-rule:evenodd" />
      </g>
    </g>
    <path
       style="display:inline;fill:#934c4c;fill-opacity:1;fill-rule:evenodd;stroke:#f57e7e;stroke-width:1.30834;stroke-linecap:butt;stroke-linejoin:miter;stroke-miterlimit:4;stroke-dasharray:none;stroke-opacity:1"
       d="m 1101.4296,431.78857 c 0,0 4.9642,23.08197 21.2297,23.08197 h 45.184 c 8.9465,0 17.533,-20.12238 17.533,-20.12238 z"
       id="path866"
       sodipodi:nodetypes="csscc" />
    <path
       style="fill:#dd7171;fill-opacity:1;fill-rule:evenodd;stroke:#f57e7e;stroke-width:1.30834;stroke-linecap:butt;stroke-linejoin:miter;stroke-miterlimit:4;stroke-dasharray:none;stroke-opacity:1"
       d="m 1225.5882,351.1531 c 0,0 48.2411,-7.9159 36.9171,39.43503 -11.324,47.35095 -70.724,37.67062 -70.724,37.67062 l 13.081,-17.28725 c 0,0 28.4447,7.56984 39.2629,-24.71055 0,0 8.0739,-22.8514 -22.3071,-17.00529 z"
       id="path898"
       sodipodi:nodetypes="csccccc" />
    <path
       style="display:inline;fill:#f57e7e;fill-opacity:1;fill-rule:evenodd;stroke:#f57e7e;stroke-width:1.30834;stroke-linecap:butt;stroke-linejoin:miter;stroke-miterlimit:4;stroke-dasharray:none;stroke-opacity:1"
       d="m 1066.1476,345.31225 c 0,0 2.7665,94.25262 75.6083,104.23217 0,0 70.4922,6.97032 85.8323,-104.23217 z"
       id="path864"
       sodipodi:nodetypes="cccc" />
    <path
       style="fill:#ffffff;fill-rule:evenodd;stroke:#000000;stroke-width:1.30834;stroke-linecap:butt;stroke-linejoin:miter;stroke-miterlimit:4;stroke-dasharray:none;stroke-opacity:1"
       d="m 1195.4763,319.91805 c 0,0 26.5404,2.11788 17.6698,25.99089 -8.8705,23.87302 -45.3998,28.76699 -45.3998,28.76699 0,0 -32.1355,1.34242 -17.2824,-28.06926 2.3322,-4.61832 8.9656,-2.7708 15.8208,-6.37595 6.8552,-3.60518 13.7884,-8.58903 13.7884,-8.58903 z"
       id="path956"
       sodipodi:nodetypes="cscsscc" />
    <path
       style="fill:#ffffff;fill-rule:evenodd;stroke:#000000;stroke-width:1.30834;stroke-linecap:butt;stroke-linejoin:miter;stroke-miterlimit:4;stroke-dasharray:none;stroke-opacity:1"
       d="m 1099.1992,319.10894 c 0,0 -24.7387,2.88675 -20.4778,26.55693 4.2608,23.67018 48.767,28.70697 48.767,28.70697 0,0 31.9697,-3.97282 12.2302,-28.58355 0,0 -37.4356,-8.02049 -40.5194,-26.68035 z"
       id="path948"
       sodipodi:nodetypes="csccc" />
    <path
       style="fill:#ffffff;fill-rule:evenodd;stroke:#000000;stroke-width:1.30834;stroke-linecap:butt;stroke-linejoin:miter;stroke-miterlimit:4;stroke-dasharray:none;stroke-opacity:1"
       d="m 1108.2412,250.19616 c -5.3448,11.35364 -6.4033,21.82688 -5.8161,31.9621 0,0 -41.8327,48.1185 39.7226,62.97287 0,0 87.5483,-4.64257 42.4166,-64.35209 0,0 1.7981,-52.59818 -25.0203,-16.40064 0,0 -18.9823,-3.54593 -32.799,0.10386 0,0 -4.1643,-12.09739 -18.5038,-14.2861 z"
       id="path900"
       sodipodi:nodetypes="ccccccc" />
    <path
       style="fill:none;fill-rule:evenodd;stroke:#000000;stroke-width:1.30834;stroke-linecap:butt;stroke-linejoin:miter;stroke-miterlimit:4;stroke-dasharray:none;stroke-opacity:1"
       d="m 1094.6237,293.89189 c 0,0 40.638,-8.49107 48.1543,-31.70423"
       id="path902" />
    <path
       style="fill:none;fill-rule:evenodd;stroke:#000000;stroke-width:1.30834;stroke-linecap:butt;stroke-linejoin:miter;stroke-miterlimit:4;stroke-dasharray:none;stroke-opacity:1"
       d="m 1190.096,287.43561 c 0,0 -36.3825,6.75282 -47.318,-25.24794"
       id="path904" />
    <path
       style="fill:#747474;fill-opacity:1;stroke:none;stroke-width:1.30834;stroke-linecap:butt;stroke-linejoin:miter;stroke-miterlimit:4;stroke-dasharray:none;stroke-opacity:1"
       d="m 1177.5673,287.38867 c -13.939,-1.13838 -24.5337,-7.16526 -30.7799,-17.50944 -1.1741,-1.94443 -3.0314,-5.85212 -3.0314,-6.37797 0,-0.34199 3.4198,-0.14722 10.3861,0.59153 3.1423,0.33324 5.7591,0.54154 5.8149,0.4629 3.1757,-4.47474 8.9558,-10.24096 11.5001,-11.47263 1.0741,-0.51996 2.3998,-0.81924 3.6292,-0.81924 1.6873,0 2.1228,0.16805 3.3801,1.30393 0.8004,0.72309 1.8888,2.29651 2.4433,3.53219 1.8663,4.15856 3.2146,12.59518 3.2212,20.15543 l 0.01,3.60507 2.248,3.13806 c 1.2363,1.72594 2.2021,3.17448 2.1462,3.21896 -0.3508,0.27923 -8.147,0.40102 -10.9609,0.1713 z"
       id="path922" />
    <path
       style="fill:#fecb95;fill-opacity:1;stroke:none;stroke-width:1.30834;stroke-linecap:butt;stroke-linejoin:miter;stroke-miterlimit:4;stroke-dasharray:none;stroke-opacity:1"
       d="m 1096.2943,291.71708 c 1.2581,-2.32338 3.7128,-6.04207 5.2147,-7.89994 l 1.2701,-1.57119 -0.1273,-2.72764 c -0.3327,-7.13195 0.9697,-16.13254 3.2953,-22.77343 0.6115,-1.74617 2.3121,-5.984 2.4712,-6.15818 0.097,-0.10616 3.3865,0.72749 4.6011,1.16604 5.368,1.93821 10.0539,6.09818 12.6263,11.20913 l 0.9446,1.87685 1.4342,-0.32698 c 2.9328,-0.66862 6.6093,-1.1027 10.2957,-1.21559 l 3.7131,-0.11369 -0.1357,0.44931 c -0.075,0.24712 -0.5979,1.34585 -1.1628,2.44162 -5.5399,10.74543 -20.2262,20.16035 -40.6119,26.03505 -1.9017,0.54805 -3.743,1.0568 -4.0916,1.13058 l -0.6338,0.13411 z"
       id="path928" />
    <path
       style="fill:none;fill-rule:evenodd;stroke:#000000;stroke-width:1.30834;stroke-linecap:butt;stroke-linejoin:miter;stroke-miterlimit:4;stroke-dasharray:none;stroke-opacity:1"
       d="m 1110.8842,296.29229 c 0,0 5.2568,9.32245 18.077,1.43693"
       id="path930" />
    <path
       style="fill:none;fill-rule:evenodd;stroke:#000000;stroke-width:1.30834;stroke-linecap:butt;stroke-linejoin:miter;stroke-miterlimit:4;stroke-dasharray:none;stroke-opacity:1"
       d="m 1159.4308,296.79408 c 0,0 4.1424,9.26521 17.4038,-0.0467"
       id="path932" />
    <ellipse
       style="fill:#000000;fill-opacity:1;fill-rule:evenodd;stroke:none;stroke-width:9.27824;stroke-linecap:round;stroke-linejoin:bevel"
       id="path934"
       cx="1142.1519"
       cy="306.08817"
       rx="5.1790867"
       ry="3.4230206" />
    <path
       style="fill:none;fill-rule:evenodd;stroke:#000000;stroke-width:1.30834;stroke-linecap:butt;stroke-linejoin:miter;stroke-miterlimit:4;stroke-dasharray:none;stroke-opacity:1"
       d="m 1129.6168,321.38265 c 0,0 11.2589,-2.92124 13.0295,-11.74607 0,0 0.5897,11.95886 11.5685,12.33843"
       id="path936" />
    <path
       style="fill:none;fill-rule:evenodd;stroke:#000000;stroke-width:1.30834;stroke-linecap:butt;stroke-linejoin:miter;stroke-miterlimit:4;stroke-dasharray:none;stroke-opacity:1"
       d="m 1079.2492,305.35569 11.7331,1.33235 c 0,0 0.049,7.98887 1.3567,9.82728"
       id="path938" />
    <path
       style="fill:none;fill-rule:evenodd;stroke:#000000;stroke-width:1.30834;stroke-linecap:butt;stroke-linejoin:miter;stroke-miterlimit:4;stroke-dasharray:none;stroke-opacity:1"
       d="m 1092.339,316.51532 -13.1988,2.26148"
       id="path940" />
    <path
       style="fill:none;fill-rule:evenodd;stroke:#000000;stroke-width:1.30834;stroke-linecap:butt;stroke-linejoin:miter;stroke-miterlimit:4;stroke-dasharray:none;stroke-opacity:1"
       d="m 1209.6251,303.63389 -12.6551,2.47382 c 0,0 1.2487,7.38416 -0.035,9.40954 l 12.0048,0.12481"
       id="path942" />
    <path
       style="fill:none;fill-rule:evenodd;stroke:#000000;stroke-width:1.30834;stroke-linecap:butt;stroke-linejoin:miter;stroke-miterlimit:4;stroke-dasharray:none;stroke-opacity:1"
       d="m 1168.4442,232.18536 13.2592,-0.30497 -10.4519,13.03551 13.4492,-0.74588"
       id="path944" />
    <path
       style="fill:none;fill-rule:evenodd;stroke:#000000;stroke-width:1.30834;stroke-linecap:butt;stroke-linejoin:miter;stroke-miterlimit:4;stroke-dasharray:none;stroke-opacity:1"
       d="m 1193.7864,255.28267 13.5473,0.15988 -13.0798,12.3557 14.8478,-1.50253"
       id="path946" />
    <path
       style="fill:none;fill-rule:evenodd;stroke:#000000;stroke-width:1.30834;stroke-linecap:butt;stroke-linejoin:miter;stroke-miterlimit:4;stroke-dasharray:none;stroke-opacity:1"
       d="m 1103.2756,331.14451 c 0,0 -3.3471,15.20366 10.6915,19.59822 14.0385,4.39457 21.6256,4.55015 29.8662,1.49361"
       id="path958" />
    <path
       style="fill:#fecb95;fill-opacity:1;stroke:none;stroke-width:1.30834;stroke-linecap:butt;stroke-linejoin:miter;stroke-miterlimit:4;stroke-dasharray:none;stroke-opacity:1"
       d="m 1129.8695,353.91675 c -3.5726,-0.27078 -8.4213,-1.2601 -13.4573,-2.74574 -3.6556,-1.07847 -5.0588,-1.65986 -6.8209,-2.82605 -1.256,-0.83127 -2.887,-2.46284 -3.7198,-3.7212 -1.7622,-2.66246 -2.6085,-5.75982 -2.6159,-9.57371 0,-1.38814 0.1494,-3.42121 0.2649,-3.53956 0.019,-0.0198 0.467,0.25793 0.996,0.61602 2.8854,1.95332 6.5672,3.91554 10.3538,5.51797 1.5295,0.64727 4.8066,1.9029 5.7941,2.21999 0.2827,0.0908 1.2085,0.45116 2.0573,0.80086 4.5745,1.88453 10.1367,3.71713 14.991,4.9391 1.0242,0.25781 1.8863,0.50332 1.9158,0.54554 0.029,0.0423 0.3787,0.50271 0.7761,1.02331 0.8928,1.16973 2.0416,2.88375 2.6782,3.99614 l 0.4806,0.8398 -0.562,0.21019 c -1.4712,0.55019 -4.1572,1.22066 -5.8893,1.47002 -2.2555,0.32474 -4.8732,0.40691 -7.2426,0.22732 z"
       id="path960" />
    <path
       style="fill:none;fill-rule:evenodd;stroke:#000000;stroke-width:1.30834;stroke-linecap:butt;stroke-linejoin:miter;stroke-miterlimit:4;stroke-dasharray:none;stroke-opacity:1"
       d="m 1167.1896,374.67836 c 0,0 15.3702,-42.34828 42.2987,-22.21569"
       id="path962" />
    <path
       style="fill:#747474;fill-opacity:1;stroke:none;stroke-width:1.30834;stroke-linecap:butt;stroke-linejoin:miter;stroke-miterlimit:4;stroke-dasharray:none;stroke-opacity:1"
       d="m 1168.0853,373.2775 c 0.8298,-2.02438 3.91,-7.96974 5.1316,-9.90464 2.9851,-4.72839 6.8731,-9.19901 10.1367,-11.65586 6.0759,-4.57397 12.7297,-5.5232 19.4093,-2.76889 1.612,0.66471 4.8919,2.5098 5.9231,3.33204 l 0.5355,0.42708 -0.903,1.19683 c -1.3706,1.81652 -5.5711,5.88657 -7.669,7.43084 -6.6057,4.86251 -14.9405,8.68487 -24.3655,11.17408 -2.7309,0.72125 -7.5382,1.7478 -8.1907,1.74902 l -0.4102,5.1e-4 z"
       id="path964" />
    <path
       style="fill:url(#linearGradient1056);fill-opacity:1;fill-rule:evenodd;stroke:none;stroke-width:0.523336px;stroke-linecap:butt;stroke-linejoin:miter;stroke-opacity:1"
       d="m 1110.294,259.84818 c 0,0 -3.071,12.06472 -1.1815,12.50814 l 8.0592,-6.59823 z"
       id="path1044" />
    <path
       style="fill:#1a1a1a;fill-rule:evenodd;stroke:none;stroke-width:0.523336px;stroke-linecap:butt;stroke-linejoin:miter;stroke-opacity:1"
       d="m 1168.2823,266.85864 7.5216,-7.07012 c 0,0 4.4828,12.31681 2.4232,12.31681 -2.0596,0 -9.9448,-5.24669 -9.9448,-5.24669 z"
       id="path1046" />
    <path
       d="m 252.72,389 c 0,0 -19,-83 23,-190"
       fill="none"
       stroke="#535461"
       stroke-miterlimit="10"
       stroke-width="3"
       opacity="0.6"
       id="path100"
       style="stroke:none" />
    <path
       d="m 178.72,364 h 147 c 0,0 29,37 -16,92 h -116 c 0,0 -42,-38 -15,-92 z"
       fill="#e16b56"
       id="path102"
       style="fill:#f57e7e;fill-opacity:1;stroke:none" />
    <path
       d="m 273.61,204.5 c 0,0 14.61,-26 49.61,-18 0,0 -28.93,49.26 -55,33.13 z"
       fill="#4db6ac"
       id="path104"
       style="stroke:none" />
    <path
       d="m 264.35,232.09 c 0,0 -1.13,-26.59 -30.13,-33.59 0,0 3,58 26,48.5 z"
       fill="#4db6ac"
       id="path106"
       style="stroke:none" />
    <path
       d="m 254.87,271.36 c 0,0 5.35,-27.86 61.35,-39.86 0,0 -17.86,57.62 -63.93,55.31 z"
       fill="#4db6ac"
       id="path108"
       style="stroke:none" />
    <path
       d="m 250.33,302.63 c 0,0 5.89,-29.13 -29.11,-56.13 0,0 -38,64.67 27.48,76.83 z"
       fill="#4db6ac"
       id="path110"
       style="stroke:none" />
    <path
       d="m 249.28,342.67 c 0,0 -4.06,-41.17 39.94,-49.17 0,0 -16.07,57.49 -40,67.74 z"
       fill="#4db6ac"
       id="path112"
       style="stroke:none" />
    <path
       d="m 268.72,220 c 0,0 38,-29 54,-34"
       fill="none"
       stroke="#535461"
       stroke-miterlimit="10"
       opacity="0.3"
       id="path114"
       style="stroke:none" />
    <path
       d="m 252.22,286.5 c 0,0 46,-49 64,-55"
       fill="none"
       stroke="#535461"
       stroke-miterlimit="10"
       opacity="0.3"
       id="path116"
       style="stroke:none" />
    <path
       d="m 234.22,198.5 c 0,0 28,38 26,48"
       fill="none"
       stroke="#535461"
       stroke-miterlimit="10"
       opacity="0.3"
       id="path118"
       style="stroke:none" />
    <path
       d="m 221.22,246.5 c 0,0 15,68 27,77"
       fill="none"
       stroke="#535461"
       stroke-miterlimit="10"
       opacity="0.3"
       id="path120"
       style="stroke:none" />
    <path
       d="m 249.22,361.5 c 0,0 24,-66 40,-68"
       fill="none"
       stroke="#535461"
       stroke-miterlimit="10"
       opacity="0.3"
       id="path122"
       style="stroke:none" />
    <g
       opacity="0.1"
       id="g126"
       transform="translate(150)">
      <path
         d="M 290,563 H 143 c -0.33,0.67 -0.65,1.34 -1,2 h 143 c 0,0 28.29,36.11 -14.4,90 h 3.4 c 45,-55 16,-92 16,-92 z"
         transform="translate(-114.28,-199)"
         id="path124" />
    </g>
  </g>
  <g
     inkscape:groupmode="layer"
     id="layer1"
     inkscape:label="Pot"
     style="display:inline"
     transform="translate(99.99997)" />
  <g
     inkscape:groupmode="layer"
     id="layer2"
     inkscape:label="Unused"
     style="display:none"
     transform="translate(99.99997)">
    <line
       x1="485.72"
       y1="42"
       x2="485.72"
       y2="20"
       stroke="#e16b56"
       stroke-miterlimit="10"
       stroke-width="2"
       id="line72" />
    <circle
       cx="485.72"
       cy="79"
       r="4"
       fill="#e16b56"
       id="circle76" />
    <line
       x1="485.72"
       y1="279"
       x2="485.72"
       y2="310"
       stroke="#e16b56"
       stroke-miterlimit="10"
       stroke-width="2"
       id="line80" />
    <line
       x1="485.72"
       y1="251"
       x2="485.72"
       y2="279.87"
       stroke="#e16b56"
       stroke-miterlimit="10"
       stroke-width="2"
       id="line82" />
    <circle
       cx="485.72"
       cy="251"
       r="4"
       fill="#e16b56"
       id="circle84" />
    <line
       x1="333.22"
       y1="168.5"
       x2="304.35001"
       y2="168.5"
       stroke="#e16b56"
       stroke-miterlimit="10"
       stroke-width="2"
       id="line88" />
    <circle
       cx="333.22"
       cy="168.5"
       r="4"
       fill="#e16b56"
       id="circle90" />
    <line
       x1="637.21997"
       y1="168.5"
       x2="682.09998"
       y2="168.5"
       stroke="#e16b56"
       stroke-miterlimit="10"
       stroke-width="2"
       id="line136" />
    <circle
       cx="686.21997"
       cy="168.5"
       r="4"
       fill="none"
       stroke="#ffffff"
       stroke-miterlimit="10"
       id="circle140" />
    <line
       x1="690.21997"
       y1="168.5"
       x2="696.21997"
       y2="168.5"
       stroke="#e16b56"
       stroke-miterlimit="10"
       stroke-width="2"
       id="line134" />
    <circle
       cx="637.21997"
       cy="168.5"
       r="4"
       fill="#e16b56"
       id="circle138" />
    <line
       x1="485.72"
       y1="42"
       x2="485.72"
       y2="20"
       stroke="#e16b56"
       stroke-miterlimit="10"
       stroke-width="2"
       id="line64" />
    <line
       x1="485.72"
       y1="79"
       x2="485.72"
       y2="50.130001"
       stroke="#e16b56"
       stroke-miterlimit="10"
       stroke-width="2"
       id="line74" />
    <circle
       cx="485.72"
       cy="46"
       r="4"
       fill="none"
       stroke="#ffffff"
       stroke-miterlimit="10"
       id="circle78"
       style="display:inline" />
    <line
       x1="305.72"
       y1="168.5"
       x2="274.22"
       y2="168.5"
       stroke="#e16b56"
       stroke-miterlimit="10"
       stroke-width="2"
       id="line86" />
    <circle
       cx="485.72"
       cy="46"
       r="4"
       fill="none"
       stroke="#ffffff"
       stroke-miterlimit="10"
       id="circle70" />
    <circle
       cx="485.72"
       cy="79"
       r="4"
       fill="#e16b56"
       id="circle68" />
    <line
       x1="485.72"
       y1="79"
       x2="485.72"
       y2="50.130001"
       stroke="#e16b56"
       stroke-miterlimit="10"
       stroke-width="2"
       id="line66" />
    <g
       id="g950"
       transform="translate(-220)">
      <g
         opacity="0.7"
         id="g144"
         transform="translate(220)">
        <path
           d="m 1027,643.88 0.1,-0.15 q 0.31,-0.48 0.61,-1 l 0.11,-0.19 q 0.29,-0.49 0.55,-1 l 0.09,-0.17 c 0.2,-0.39 0.39,-0.78 0.56,-1.19 v 0 a 23.79,23.79 0 0 0 0.94,-2.51 l 0.1,-0.33 c 0.09,-0.31 0.18,-0.62 0.26,-0.93 l 0.1,-0.44 q 0.1,-0.42 0.18,-0.85 c 0,-0.16 0.06,-0.32 0.09,-0.48 0.03,-0.16 0.09,-0.56 0.13,-0.85 0.04,-0.29 0,-0.33 0.06,-0.49 0.06,-0.16 0.06,-0.61 0.08,-0.92 0,-0.14 0,-0.29 0,-0.43 0,-0.45 0,-0.91 0,-1.36 V 548 h -13.85 v -40.48 h -17 V 548 h -11.72 v -58.14 h -17 V 548 H 965 V 481.55 H 948 V 548 h -15 v 82.6 c 0,13.48 11.21,24.4 25,24.4 h 48 a 25.19,25.19 0 0 0 20.24,-10.06 v 0 q 0.37,-0.53 0.76,-1.06 z"
           transform="translate(-114.28,-199)"
           fill="url(#2cf89a04-5a05-413b-983a-d2bc296cbb5e)"
           id="path142"
           style="fill:url(#2cf89a04-5a05-413b-983a-d2bc296cbb5e)" />
      </g>
      <rect
         x="1077.72"
         y="329"
         width="16"
         height="100"
         fill="#535461"
         id="rect150" />
      <rect
         x="1104.72"
         y="346"
         width="16"
         height="100"
         fill="#535461"
         id="rect154" />
      <g
         id="g930">
        <rect
           x="1055.72"
           y="321"
           width="16"
           height="100"
           fill="#535461"
           id="rect146" />
        <rect
           x="1055.72"
           y="288"
           width="16"
           height="33"
           fill="#3ad29f"
           id="rect148" />
        <rect
           x="1077.72"
           y="296"
           width="16"
           height="33"
           fill="#4d8af0"
           id="rect152" />
        <rect
           x="1104.72"
           y="313"
           width="16"
           height="33"
           fill="#f55f44"
           id="rect156" />
        <path
           d="m 1041.72,352 h 92 v 79.5 a 23.5,23.5 0 0 1 -23.5,23.5 h -45 a 23.5,23.5 0 0 1 -23.5,-23.5 z"
           fill="#e16b56"
           id="path158" />
      </g>
      <g
         opacity="0.1"
         id="g162"
         transform="translate(220)">
        <path
           d="m 936,551 v 4 h 88 v 79.5 a 23.39,23.39 0 0 1 -5,14.49 23.45,23.45 0 0 0 9,-18.49 V 551 Z"
           transform="translate(-114.28,-199)"
           id="path160" />
      </g>
    </g>
  </g>
</svg>
