<?xml version="1.0" encoding="UTF-8" standalone="no"?>
<svg
   xmlns:dc="http://purl.org/dc/elements/1.1/"
   xmlns:cc="http://creativecommons.org/ns#"
   xmlns:rdf="http://www.w3.org/1999/02/22-rdf-syntax-ns#"
   xmlns:svg="http://www.w3.org/2000/svg"
   xmlns="http://www.w3.org/2000/svg"
   xmlns:sodipodi="http://sodipodi.sourceforge.net/DTD/sodipodi-0.dtd"
   xmlns:inkscape="http://www.inkscape.org/namespaces/inkscape"
   inkscape:version="1.0.1 (3bc2e813f5, 2020-09-07)"
   sodipodi:docname="logo-white.svg"
   id="svg2"
   height="32.088734"
   width="250"
   version="1.1"
   viewBox="0 0 249.99998 32.088735">
  <sodipodi:namedview
     inkscape:current-layer="svg2"
     inkscape:cy="17.711263"
     inkscape:cx="122.57075"
     inkscape:zoom="2.8284271"
     inkscape:pagecheckerboard="true"
     showgrid="false"
     id="namedview42"
     inkscape:window-height="480"
     inkscape:window-width="640"
     inkscape:pageshadow="2"
     inkscape:pageopacity="0"
     guidetolerance="10"
     gridtolerance="10"
     objecttolerance="10"
     borderopacity="1"
     bordercolor="#666666"
     pagecolor="#ffffff"
     inkscape:document-rotation="0"
     viewbox-x="0"
     viewbox-y="0"
     scale-x="1"
     viewbox-width="250"
     units="px"
     fit-margin-top="0"
     fit-margin-left="0"
     fit-margin-right="0"
     fit-margin-bottom="0"
     lock-margins="true" />
  <defs
     id="defs28" />
  <metadata
     id="metadata7">
    <rdf:RDF>
      <cc:Work
         rdf:about="">
        <dc:format>image/svg+xml</dc:format>
        <dc:type
           rdf:resource="http://purl.org/dc/dcmitype/StillImage" />
        <dc:title></dc:title>
      </cc:Work>
    </rdf:RDF>
  </metadata>
  <g
     id="layer2"
     style="display:none"
     transform="translate(-315.8211,-241.82765)">
    <circle
       id="path4136"
       cy="328.88004"
       cx="352.49997"
       r="274.29001"
       style="fill:#cccccc" />
  </g>
  <g
     id="layer4"
     style="display:none"
     transform="translate(-315.8211,-241.82765)">
    <g
       id="text4401"
       style="fill:#ffffff"
       transform="translate(1596.7829,-909.16751)">
      <path
         id="path4145"
         d="m -908.3,1187.9 c 0,-24.281 -15.347,-29.778 -30.465,-29.778 -32.985,0 -43.751,38.483 -43.751,64.138 0,39.17 20.387,52.914 41.461,52.914 23.364,0 45.126,-19.928 52.914,-42.377 h -7.33 c -8.0172,17.867 -21.761,24.968 -36.192,24.968 -13.057,0 -24.052,-5.4975 -26.342,-29.778 30.924,-3.4359 49.707,-18.783 49.707,-40.086 z m -49.936,31.153 c 0,-22.448 7.7882,-49.707 23.823,-49.707 7.33,0 11.453,4.8103 11.453,16.264 0,17.18 -13.744,30.007 -35.276,33.443 z"
         style="fill:#ffffff;fill-opacity:1" />
      <path
         id="path4147"
         d="m -895.89,1232.8 c 0,31.84 13.973,42.377 32.985,42.377 33.443,0 50.165,-32.069 50.165,-66.887 0,-39.628 -21.99,-49.478 -38.254,-49.478 -9.8497,0 -16.722,3.665 -21.761,8.9335 v -54.288 l -22.906,3.2069 -0.22906,116.14 z m 62.763,-19.241 c 0,23.823 -8.7044,45.813 -26.113,45.813 -9.3916,0 -13.515,-6.6428 -13.515,-20.616 v -60.244 c 4.1232,-4.5813 9.3916,-7.7882 15.576,-7.7882 15.347,0 24.052,19.241 24.052,42.835 z"
         style="fill:#ffffff;fill-opacity:1" />
      <path
         id="path4149"
         d="m -751.35,1204.9 h -45.813 v 16.034 h 45.813 z"
         style="fill:#ffffff;fill-opacity:1" />
      <path
         id="path4151"
         d="m -685.3,1158.1 c -34.36,0 -44.667,36.879 -44.667,63.68 0,39.399 22.448,53.372 42.835,53.372 24.739,0 39.17,-22.677 39.17,-60.244 0,-3.665 0,-7.101 -0.45813,-10.766 10.079,-5.0394 15.347,-17.18 17.867,-27.259 h -6.6428 c -1.6034,4.5813 -4.3522,11.453 -13.057,11.453 -3.8941,-17.409 -13.515,-30.236 -35.047,-30.236 z m 2.2906,99.643 c -10.308,0 -22.219,-7.101 -22.219,-36.879 0,-22.448 6.8719,-50.165 25.884,-50.165 6.4138,0 12.14,3.2069 15.805,12.14 -5.0394,0.6872 -8.4754,4.1231 -8.4754,10.308 0,8.7045 3.8941,13.744 12.369,13.744 0,1.6034 0.22906,3.2068 0.22906,4.8103 0,29.091 -7.5591,46.042 -23.594,46.042 z"
         style="fill:#ffffff;fill-opacity:1" />
      <path
         id="path4153"
         d="m -571.95,1204.9 h -45.813 v 16.034 h 45.813 z"
         style="fill:#ffffff;fill-opacity:1" />
      <path
         id="path4155"
         d="m -547.82,1159.3 v 114.53 h 22.906 v -84.296 c 5.2685,-5.4975 11.911,-11.453 18.783,-11.453 6.6428,0 7.5591,5.7266 12.828,5.7266 3.665,0 10.537,-2.7487 10.537,-11.911 0,-7.5591 -4.8103,-13.744 -15.118,-13.744 -13.057,0 -19.929,9.6207 -27.03,20.387 v -19.241 h -22.906 z"
         style="fill:#ffffff;fill-opacity:1" />
      <path
         id="path4157"
         d="m -399.17,1187.9 c 0,-24.281 -15.347,-29.778 -30.465,-29.778 -32.985,0 -43.751,38.483 -43.751,64.138 0,39.17 20.387,52.914 41.461,52.914 23.364,0 45.126,-19.928 52.914,-42.377 h -7.33 c -8.0172,17.867 -21.761,24.968 -36.192,24.968 -13.057,0 -24.052,-5.4975 -26.342,-29.778 30.924,-3.4359 49.707,-18.783 49.707,-40.086 z m -49.936,31.153 c 0,-22.448 7.7882,-49.707 23.823,-49.707 7.33,0 11.453,4.8103 11.453,16.264 0,17.18 -13.744,30.007 -35.276,33.443 z"
         style="fill:#ffffff;fill-opacity:1" />
      <path
         id="path4159"
         d="m -313,1196.6 c 0,-30.924 -8.7044,-42.148 -19.241,-42.148 -7.5591,0 -11.682,5.7266 -11.682,11.682 0,5.7266 3.665,12.14 10.995,12.14 1.3744,0 4.5813,-0.2291 5.9556,-1.8325 1.3744,6.6428 2.0616,15.576 2.0616,24.052 0,27.03 -6.8719,57.266 -25.655,57.266 -11.224,0 -13.286,-10.537 -13.286,-20.616 v -77.882 h -22.906 v 84.524 c 0,20.387 15.576,31.382 31.382,31.382 31.611,0 42.377,-43.98 42.377,-78.569 z"
         style="fill:#ffffff;fill-opacity:1" />
      <path
         id="path4161"
         d="m -295.26,1159.3 v 82.692 c 0,14.889 5.2685,33.214 26.342,33.214 10.079,0 24.968,-4.1231 31.84,-42.377 h -8.4754 c -3.436,16.492 -9.1626,24.968 -16.493,24.968 -9.8497,0 -10.308,-14.66 -10.308,-20.616 v -77.882 h -22.906 z m -4.1232,-32.985 c 0,8.4754 6.6428,15.118 15.118,15.118 8.2463,0 15.347,-6.6428 15.347,-15.118 0,-8.2463 -7.101,-15.347 -15.347,-15.347 -8.4754,0 -15.118,7.1009 -15.118,15.347 z"
         style="fill:#ffffff;fill-opacity:1" />
      <path
         id="path4163"
         d="m -174.13,1187.9 c 0,-24.281 -15.347,-29.778 -30.465,-29.778 -32.985,0 -43.751,38.483 -43.751,64.138 0,39.17 20.387,52.914 41.461,52.914 23.364,0 45.126,-19.928 52.914,-42.377 h -7.33 c -8.0172,17.867 -21.761,24.968 -36.192,24.968 -13.057,0 -24.052,-5.4975 -26.342,-29.778 30.924,-3.4359 49.707,-18.783 49.707,-40.086 z m -49.936,31.153 c 0,-22.448 7.7882,-49.707 23.823,-49.707 7.33,0 11.453,4.8103 11.453,16.264 0,17.18 -13.744,30.007 -35.276,33.443 z"
         style="fill:#ffffff;fill-opacity:1" />
      <path
         id="path4165"
         d="m -161.72,1159.3 v 80.401 c 0,26.113 14.431,35.505 32.298,35.505 9.3916,0 18.783,-5.4975 24.739,-17.867 5.2685,11.682 16.951,17.867 28.862,17.867 31.611,0 42.377,-43.98 42.377,-78.569 0,-30.924 -8.7044,-42.148 -19.241,-42.148 -7.5591,0 -11.682,5.7266 -11.682,11.682 0,5.7266 3.665,12.14 10.995,12.14 1.3744,0 4.5813,-0.2291 5.9557,-1.8325 1.3744,6.6428 2.0616,15.576 2.0616,24.052 0,27.03 -6.8719,57.266 -25.655,57.266 -11.224,0 -13.286,-10.537 -13.286,-20.616 v -77.882 h -22.906 v 73.53 c 0,15.805 -9.1626,24.968 -17.867,24.968 -8.0172,0 -13.744,-5.7266 -13.744,-20.616 v -77.882 h -22.906 z"
         style="fill:#ffffff;fill-opacity:1" />
      <path
         id="path4167"
         d="m 3.4476,1156.8 c -2.2906,22.448 -11.224,45.126 -19.241,67.803 -4.5813,2.5197 -8.2463,8.7044 -8.2463,16.722 0,14.889 7.33,33.901 34.13,33.901 13.057,0 35.505,-8.0172 35.505,-30.694 0,-24.052 -4.3522,-33.443 -19.012,-92.313 l -23.135,4.5813 z m 17.867,85.212 c 0,11.224 -6.4138,16.034 -16.034,16.034 -10.079,0 -16.264,-6.1848 -18.554,-16.951 1.8325,2.2907 3.8941,3.2069 6.1847,3.2069 3.665,0 7.33,-3.2069 7.33,-8.9334 0,-5.0395 -2.2906,-8.2463 -5.0394,-10.079 4.5813,-16.492 11.453,-31.611 13.286,-48.562 8.4754,39.857 12.828,46.5 12.828,65.283 z"
         style="fill:#ffffff;fill-opacity:1" />
    </g>
  </g>
  <g
     id="g903">
    <g
       id="layer3"
       style="display:inline"
       transform="matrix(0.19441444,0,0,0.19441444,-61.400182,-47.014788)">
      <g
         id="g844"
         transform="matrix(0.69703725,0,0,0.69703725,205.82862,88.284288)">
        <path
           id="path4160"
           d="m 157.8,223.38 91.6,-1.6963 117.89,234.09 h -94.992 z"
           style="fill:#00989b;fill-rule:evenodd" />
        <path
           id="path4162"
           d="m 263,222.58 91.6,-1.6963 c 40.355,79.234 133.88,152.84 117.89,234.09 h -23.748 -23.748 -23.748 -23.748 z"
           style="fill:#00989b;fill-rule:evenodd" />
        <path
           id="path4394"
           d="m 476.9,399.08 79.158,-178.8 h -192.51 c 23.764,50.348 51.597,73.547 83.8,121.99 10.519,15.823 18.494,34.186 29.552,56.817 z"
           style="fill:#006565;fill-rule:evenodd" />
      </g>
    </g>
    <g
       style="display:inline;fill:#ffffff;fill-opacity:1"
       id="g872"
       transform="matrix(0.19441444,0,0,0.19441444,-61.400182,-47.014788)">
      <g
         transform="translate(1556.1385,-868.34511)"
         style="fill:#ffffff;fill-opacity:1"
         id="g866">
        <path
           style="fill:#ffffff;fill-opacity:1"
           d="m -908.3,1187.9 c 0,-24.281 -15.347,-29.778 -30.465,-29.778 -32.985,0 -43.751,38.483 -43.751,64.138 0,39.17 20.387,52.914 41.461,52.914 23.364,0 45.126,-19.928 52.914,-42.377 h -7.33 c -8.0172,17.867 -21.761,24.968 -36.192,24.968 -13.057,0 -24.052,-5.4975 -26.342,-29.778 30.924,-3.4359 49.707,-18.783 49.707,-40.086 z m -49.936,31.153 c 0,-22.448 7.7882,-49.707 23.823,-49.707 7.33,0 11.453,4.8103 11.453,16.264 0,17.18 -13.744,30.007 -35.276,33.443 z"
           id="path842" />
        <path
           style="fill:#ffffff;fill-opacity:1"
           d="m -895.89,1232.8 c 0,31.84 13.973,42.377 32.985,42.377 33.443,0 50.165,-32.069 50.165,-66.887 0,-39.628 -21.99,-49.478 -38.254,-49.478 -9.8497,0 -16.722,3.665 -21.761,8.9335 v -54.288 l -22.906,3.2069 -0.22906,116.14 z m 62.763,-19.241 c 0,23.823 -8.7044,45.813 -26.113,45.813 -9.3916,0 -13.515,-6.6428 -13.515,-20.616 v -60.244 c 4.1232,-4.5813 9.3916,-7.7882 15.576,-7.7882 15.347,0 24.052,19.241 24.052,42.835 z"
           id="path844" />
        <path
           style="fill:#ffffff;fill-opacity:1"
           d="m -751.35,1204.9 h -45.813 v 16.034 h 45.813 z"
           id="path846" />
        <path
           style="fill:#ffffff;fill-opacity:1"
           d="m -685.3,1158.1 c -34.36,0 -44.667,36.879 -44.667,63.68 0,39.399 22.448,53.372 42.835,53.372 24.739,0 39.17,-22.677 39.17,-60.244 0,-3.665 0,-7.101 -0.45813,-10.766 10.079,-5.0394 15.347,-17.18 17.867,-27.259 h -6.6428 c -1.6034,4.5813 -4.3522,11.453 -13.057,11.453 -3.8941,-17.409 -13.515,-30.236 -35.047,-30.236 z m 2.2906,99.643 c -10.308,0 -22.219,-7.101 -22.219,-36.879 0,-22.448 6.8719,-50.165 25.884,-50.165 6.4138,0 12.14,3.2069 15.805,12.14 -5.0394,0.6872 -8.4754,4.1231 -8.4754,10.308 0,8.7045 3.8941,13.744 12.369,13.744 0,1.6034 0.22906,3.2068 0.22906,4.8103 0,29.091 -7.5591,46.042 -23.594,46.042 z"
           id="path848" />
        <path
           style="fill:#ffffff;fill-opacity:1"
           d="m -571.95,1204.9 h -45.813 v 16.034 h 45.813 z"
           id="path850" />
        <path
           style="fill:#ffffff;fill-opacity:1"
           d="m -547.82,1159.3 v 114.53 h 22.906 v -84.296 c 5.2685,-5.4975 11.911,-11.453 18.783,-11.453 6.6428,0 7.5591,5.7266 12.828,5.7266 3.665,0 10.537,-2.7487 10.537,-11.911 0,-7.5591 -4.8103,-13.744 -15.118,-13.744 -13.057,0 -19.929,9.6207 -27.03,20.387 v -19.241 h -22.906 z"
           id="path852" />
        <path
           style="fill:#ffffff;fill-opacity:1"
           d="m -399.17,1187.9 c 0,-24.281 -15.347,-29.778 -30.465,-29.778 -32.985,0 -43.751,38.483 -43.751,64.138 0,39.17 20.387,52.914 41.461,52.914 23.364,0 45.126,-19.928 52.914,-42.377 h -7.33 c -8.0172,17.867 -21.761,24.968 -36.192,24.968 -13.057,0 -24.052,-5.4975 -26.342,-29.778 30.924,-3.4359 49.707,-18.783 49.707,-40.086 z m -49.936,31.153 c 0,-22.448 7.7882,-49.707 23.823,-49.707 7.33,0 11.453,4.8103 11.453,16.264 0,17.18 -13.744,30.007 -35.276,33.443 z"
           id="path854" />
        <path
           style="fill:#ffffff;fill-opacity:1"
           d="m -313,1196.6 c 0,-30.924 -8.7044,-42.148 -19.241,-42.148 -7.5591,0 -11.682,5.7266 -11.682,11.682 0,5.7266 3.665,12.14 10.995,12.14 1.3744,0 4.5813,-0.2291 5.9556,-1.8325 1.3744,6.6428 2.0616,15.576 2.0616,24.052 0,27.03 -6.8719,57.266 -25.655,57.266 -11.224,0 -13.286,-10.537 -13.286,-20.616 v -77.882 h -22.906 v 84.524 c 0,20.387 15.576,31.382 31.382,31.382 31.611,0 42.377,-43.98 42.377,-78.569 z"
           id="path856" />
        <path
           style="fill:#ffffff;fill-opacity:1"
           d="m -295.26,1159.3 v 82.692 c 0,14.889 5.2685,33.214 26.342,33.214 10.079,0 24.968,-4.1231 31.84,-42.377 h -8.4754 c -3.436,16.492 -9.1626,24.968 -16.493,24.968 -9.8497,0 -10.308,-14.66 -10.308,-20.616 v -77.882 h -22.906 z m -4.1232,-32.985 c 0,8.4754 6.6428,15.118 15.118,15.118 8.2463,0 15.347,-6.6428 15.347,-15.118 0,-8.2463 -7.101,-15.347 -15.347,-15.347 -8.4754,0 -15.118,7.1009 -15.118,15.347 z"
           id="path858" />
        <path
           style="fill:#ffffff;fill-opacity:1"
           d="m -174.13,1187.9 c 0,-24.281 -15.347,-29.778 -30.465,-29.778 -32.985,0 -43.751,38.483 -43.751,64.138 0,39.17 20.387,52.914 41.461,52.914 23.364,0 45.126,-19.928 52.914,-42.377 h -7.33 c -8.0172,17.867 -21.761,24.968 -36.192,24.968 -13.057,0 -24.052,-5.4975 -26.342,-29.778 30.924,-3.4359 49.707,-18.783 49.707,-40.086 z m -49.936,31.153 c 0,-22.448 7.7882,-49.707 23.823,-49.707 7.33,0 11.453,4.8103 11.453,16.264 0,17.18 -13.744,30.007 -35.276,33.443 z"
           id="path860" />
        <path
           style="fill:#ffffff;fill-opacity:1"
           d="m -161.72,1159.3 v 80.401 c 0,26.113 14.431,35.505 32.298,35.505 9.3916,0 18.783,-5.4975 24.739,-17.867 5.2685,11.682 16.951,17.867 28.862,17.867 31.611,0 42.377,-43.98 42.377,-78.569 0,-30.924 -8.7044,-42.148 -19.241,-42.148 -7.5591,0 -11.682,5.7266 -11.682,11.682 0,5.7266 3.665,12.14 10.995,12.14 1.3744,0 4.5813,-0.2291 5.9557,-1.8325 1.3744,6.6428 2.0616,15.576 2.0616,24.052 0,27.03 -6.8719,57.266 -25.655,57.266 -11.224,0 -13.286,-10.537 -13.286,-20.616 v -77.882 h -22.906 v 73.53 c 0,15.805 -9.1626,24.968 -17.867,24.968 -8.0172,0 -13.744,-5.7266 -13.744,-20.616 v -77.882 h -22.906 z"
           id="path862" />
        <path
           style="fill:#ffffff;fill-opacity:1"
           d="m 3.4476,1156.8 c -2.2906,22.448 -11.224,45.126 -19.241,67.803 -4.5813,2.5197 -8.2463,8.7044 -8.2463,16.722 0,14.889 7.33,33.901 34.13,33.901 13.057,0 35.505,-8.0172 35.505,-30.694 0,-24.052 -4.3522,-33.443 -19.012,-92.313 l -23.135,4.5813 z m 17.867,85.212 c 0,11.224 -6.4138,16.034 -16.034,16.034 -10.079,0 -16.264,-6.1848 -18.554,-16.951 1.8325,2.2907 3.8941,3.2069 6.1847,3.2069 3.665,0 7.33,-3.2069 7.33,-8.9334 0,-5.0395 -2.2906,-8.2463 -5.0394,-10.079 4.5813,-16.492 11.453,-31.611 13.286,-48.562 8.4754,39.857 12.828,46.5 12.828,65.283 z"
           id="path864" />
      </g>
    </g>
  </g>
</svg>
